/* XPM */
static char *_f326e92df0c4c92faafa2538b859b7bCQGzvrmB7o4rgyr3[] = {
/* columns rows colors chars-per-pixel */
"64 64 55 1 ",
"  c #65635E",
". c #6A675F",
"X c #676561",
"o c #6A6761",
"O c #706B63",
"+ c #716F6B",
"@ c #747066",
"# c #75736D",
"$ c #79766D",
"% c #777671",
"& c #797772",
"* c #7C7A74",
"= c #7E7D7A",
"- c #817E76",
"; c #817F79",
": c #868076",
"> c #84827C",
", c #89857D",
"< c #8D897F",
"1 c #7D8182",
"2 c #868582",
"3 c #898782",
"4 c #8C8A85",
"5 c #878988",
"6 c #8E8D8A",
"7 c #908D86",
"8 c #908F8A",
"9 c #8F908F",
"0 c #939087",
"q c #93928D",
"w c #98958F",
"e c #959592",
"r c #989793",
"t c #979896",
"y c #999893",
"u c #989895",
"i c #9A9996",
"p c #9D9B96",
"a c #9E9C97",
"s c #979898",
"d c #9B9B99",
"f c #9C9B98",
"g c #9E9C98",
"h c #9C9C9A",
"j c #9D9D9C",
"k c #A09F9B",
"l c #A09F9C",
"z c #9FA09F",
"x c #A0A09D",
"c c #A1A1A0",
"v c #A4A3A0",
"b c #A4A4A2",
"n c #A5A5A5",
"m c #A7A8A8",
"M c #A8A9A8",
/* pixels */
"bp0rkxlxgwxkgqipixcgi4eljxlpggxkvxccfqew3gpp-6w=6pjxxpiiffeigkl0",
"ip7qlgpgxibxkpl06lxggeplriqggxlxxgcldip8rlxxqer>qgjjjwep8qicvp04",
"ixgq6fxxglxyxpliqllywgnxeepjgdgggjjcjefgggxgririijq6rqjr>icnbw>4",
"ibxp,6ggagawgvcrrxfiyxcgrxxccdeqclxxgixcxqiwqedfjjregqdredcjd0>q",
"gxgx86xxgggglxjr4igiijjjlxgxjiqejjjjjjgggw08qrjjcgicxgjxgicx7irf",
"dclcgqglefxxgrip7eggpigdigjgcxiijjgfjgidfy>3qgdewiixqexcxgxcxcji",
"xccxie8eiexxgyygpggxgddq6xxjxjixxxxifjjgi628iiqeqegc03gcxpijcnjf",
"jgcg6xggwecxfxxxgiiifie6eglgjjjjgjxjgccze61qgdeieedcirjxjgjccncc",
"jgii3zcjdgfgixxxjiiqrq0qdigifiiiijjjjjjdq3=egfiq>qdfijiijxcccjgj",
"fggr8dgjdjggifjidijgq848deigirj04gjgjgqif0>6egig0deigg,3djjjcjie",
"fggi008qejceecjfrigjeq48fcgdr0iirgijjyexgg<:eiicjdifir;3eigdcjgr",
"fggii080ridilxee63rjiiii8djdq03ggjjjgixjri,>ifgigdgieg36i4ijxjci",
"iggjg4egfdijci6q44wqq4ie6edi433jggigcfjjdw-2edddidp4ejpii0iggijj",
"lledp6icgeqgi8qdq8gfq4ie48eeriigifgfjigjer4qdgyigie48ggiqefjjffd",
"jciqjegjgidfriedi0fxi0erq44idigiidgggeiewqqrejidjiirqfqeeigdjjdg",
"iifijiiieigggjigiieiireee84eeieeedidjw3>qeggigeedi8iigiidiieegdg",
"eedfjgeqijjxjgedijddrie436q66d43edrwi6->08dgjgigxi6idqiieqeeifid",
"iq8gzieeijdjeqddegdiqei6qq6>ed6qgeeri,-3iieedrijjiiee0ii7>qiiigi",
"iiiegi8qedjgq8q86ieeeegeqieqgdeideeq3636giyrfeeiiedq4errr74diqdg",
"deigjfq0qiiddeeweeeeqige8eieieeeqqi>364egigrfeqigedw4eiigiqiieee",
"eqedqeeqeeeieedeeedieieq38eq6qeeqqd>2432iigrii>6ieee>8qegdiieede",
"34eeq3eeeeqeseseeeeiete2&323>6eqeqd3qqw6eegiiq*6ieee>eiieeidqqiq",
"3eeee3eqeeqeeeeeee63eii3##=;%>qeeei4eqediqridq>2ieqeqeide6ii44e8",
"qdq6eqeieeqeqeeeeee3qdg6#O$;&>edeeeeeeejieride0qee48eeiiq6idq6ee",
"3e6286te8eeeeseeq664qgge362*#3eeeiq6edjg8iideieeie46ridiqq6ddqee",
"66ee46ee66eeee9q6634egfe633=;8eeqiieeegiiiiieq8eieq0iieie04edeee",
"eii8eeee63eeee66636edeee6232*;eeijxddgfiiqiieq6qeeeeeeieqeqq6eee",
"izi4qeeeeeede6qee3eiieeiq382&o2eiccggxifi8eeeqqeqeqeqede3ee6>6ie",
"gdq38eeqeteee66iieidjjieqee6=.*elxbxpxpde8e8ew0eeieirqe62qei66gi",
"ddteeee6eqeeeqeiieedxjiifie63->icxnbglggqqe43q8qddiei8eq8eieigdi",
"eieeeeeeeeeeqefdeeeifw8jfggeeqwgrqj0eggjqqq433eediiieie8qeeejfiq",
"eeeieeeqeeeeeegeeeidiiijgidjgiigiqe8egireeq8qeqqieiieii03qeiiijr",
"e8eqeee3eeee6egeeeeeeegggigjgijxfggdeeieiieqeeeeieeidee00ieq66qe",
"qeeeq6q0qqqeeideqe66eeiiidijjiirqjggriiieree83ee6qeeeq2qqddeeqee",
"6eeeeeieqeeeidgq>q8qeieiieeggieqqeiegiirijxiq8e66ee8eq3eeedeeeqq",
"3qeeegj66eeeie668qqiiiieeqqqgii6eeedge6eeexfq46eeeiee68eieeeie6q",
"2>qiidi66edeeieqqqeqeqeiiqqee4reeiqggiq326idq626ee636;6qee6eeeeq",
">;6iedeeeqe8eeiqqqieq36iiied84qieqqqgiq=66q636eqqq3366eeq0qq8qe2",
">>6eedie3qeeiidq,6ije66dxjgge8qii8eeq46$#263>=9ee63q63qeq,368ee6",
"qedeidieee0eeidr8eigi38dggzjx86ddeedq26@ =26>%66q>64&#*66>--3q63",
"eddqdgiddieediiiieige3ei7igjxq8gzjggeq6$X*2>;*6ee6q>#&333;&&3366",
"iidgediiiqqdjgdwi6qg03rg6qfiiieidigeee>&#+26q3eeeee6&=qqq3&-636q",
"eeijfiedgidxxjeegeqie0rfqq880yeeirq2ee>=226eeeeeq8eq&2eee8>>338i",
"eedxgiiidjgfzieigiigfiypq48q8eedjge6eq36eq3edtee0qq4>qeiee4>qqqe",
"86ixjgpggjjdi88jggjcgijxgiggefggxge68qeeq63eedeeqeq3eddieeq6eeiq",
">>qxgryliifigr4jgifglgjxcxjgipigfge>*6tee6qeeteeieieeiq4diiiqefi",
"36ixxg4iedgixgicgixigxxgxxxgggigeeiq36qeeeeeeeididgrqir8ggii4efi",
"qegxcjggqxgxlyaxiggxgllglxcgiwediiqe3666deeq6iidiidgiiideijjidje",
"ddjicx34igxbxqixggxnxxjlggczi6eiie6e3qeeeediqieiiiifdgdgidgjgggi",
"ccccbx46jglcbxigijgglcljlixxgigfiiddeeee806iijgdiiidiqdrgjijgiig",
"clgxbcgjncxgbcxgpgqilgiiggccggxigiiggdieq86egjddieiqiwdgcfccxirg",
"xgwfcccnMblcbxggnbwirgjjccxncfxfdedxxjjdeii6eddeeew06>eigijxxrif",
"gfiggznnncixcblicnigigxgxggnbjggjqegjjdiqeqeeeieedir>*6djgiefq0e",
"iieiijnnbxlggnncnmxlgccjgrqbcxgfgregddiiq8eeqeididji3=66qeeqq8qi",
"fieigxxxgijgcnbcxbjgixgiie8gxxxirrdjeeedgttieeidiieeeqe>3qqe8eig",
"lidiejxiq4qgcbbbaxjxggi4giipggglgweieq8dddieqeeiieeeiee33qeeqrig",
"gq8eqdi87<qgbxccxplxxglexvxjilxllree6q6eeeieeiqiq68egddieqii8qpa",
"ggrpry-2rkkcniegbpggxrkxggpgilnvcipggedi8eeedr44e>>dfejigfxg33ir",
"gxvxww32gxkbk33jnggkgpgxq4gcgdbckrpqjgjieeeq6ei8iq6jxrdpgcnc44wi",
"cpekyipexklbg32elgkgqggprrcnbcMngpiyxdirieieedjiieefjigkxcbcyr7i",
"x32rgxgjy0gvp32qpgggakpqibgxxxxxjcgcjgrieqggi6die76friccbxnxxcxg",
"x628pxgxp7iby36eipggxkaeixrpqggxglpjgxxg0ile8*exrweiifjxcgxcnnxa",
"p526gbxxvwwkipkrqgxxkglflkpprxprwrggxjxjgxk04;6xyq8eeiglxaqpbngi",
"g><7gxlnbkwrifkypkcgqylllgxgcxgriilggjjgige0,2r8q0qdrqgpgbi8jcgi"
};
