/* XPM */
static char *f69f6ba6ffb341c5887322749818c163ynM8UsijqSwmqxHY[] = {
/* columns rows colors chars-per-pixel */
"13 17 187 2 ",
"   c black",
".  c #2C2733",
"X  c #ECA5BE",
"o  c #90697E",
"O  c #5B3F56",
"+  c #78526A",
"@  c #4B4245",
"#  c #5E4359",
"$  c #4E474B",
"%  c #211F30",
"&  c #0B0D1F",
"*  c #4F4550",
"=  c #1B1F2B",
"-  c #1B1E2B",
";  c #13142A",
":  c #31223E",
">  c #453B46",
",  c #04051F",
"<  c #242132",
"1  c #4C314F",
"2  c #8F4D7D",
"3  c #4D394E",
"4  c #372C3F",
"5  c #221F30",
"6  c #30253A",
"7  c #493E49",
"8  c #7D4670",
"9  c #272134",
"0  c white",
"q  c #2D2938",
"w  c #563A54",
"e  c #AA648E",
"r  c #1F1E2F",
"t  c #37273F",
"y  c #49304C",
"u  c #33243D",
"i  c #573556",
"p  c #4D314F",
"a  c #884978",
"s  c #874877",
"d  c #4A304D",
"f  c #513352",
"g  c #0F101C",
"h  c #675660",
"j  c #9C7185",
"k  c #7B536C",
"l  c #494145",
"z  c #AF9374",
"x  c #96627F",
"c  c #47414E",
"v  c #694F63",
"b  c #4F394E",
"n  c #4E474C",
"m  c #CFB58F",
"M  c #AB6792",
"N  c #BD879F",
"B  c #905F7B",
"V  c black",
"C  c #34343E",
"Z  c #BCA17E",
"A  c #785961",
"S  c #000012",
"D  c black",
"F  c #48424E",
"G  c #564357",
"H  c #705855",
"J  c #C5AE8D",
"K  c #736357",
"L  c black",
"P  c black",
"I  c #724C72",
"U  c #BF88A3",
"Y  c None",
"T  c #A2637E",
"R  c #615850",
"E  c #484248",
"W  c #1B0F2A",
"Q  c #A88EAB",
"!  c #BB6B9A",
"~  c #271937",
"^  c #533353",
"/  c #90658A",
"(  c #683D62",
")  c #0E1423",
"_  c #473549",
"`  c #6A4363",
"'  c #00040A",
"]  c #372C3F",
"[  c #A86C8B",
"{  c #94567F",
"}  c #D987AC",
"|  c #9B6681",
" . c #101525",
".. c #443148",
"X. c #AE6591",
"o. c #92537E",
"O. c #8A617C",
"+. c #B66498",
"@. c #A26188",
"#. c #272234",
"$. c #31243C",
"%. c #392442",
"&. c #3F3543",
"*. c #AB9283",
"=. c #683C62",
"-. c #2C2038",
";. c #262134",
":. c #4E464B",
">. c #CDB492",
",. c #6C3F65",
"<. c #7B4A6E",
"1. c #AE7586",
"2. c #A1856B",
"3. c #A08569",
"4. c #754F61",
"5. c #B56997",
"6. c #CD78A5",
"7. c #4C314E",
"8. c #000300",
"9. c #1D1E2D",
"0. c #B27292",
"q. c #AD6C8F",
"w. c #0B0D24",
"e. c #000013",
"r. c #000001",
"t. c #7E4E6F",
"y. c #A4618A",
"u. c #4B354D",
"i. c #2E2639",
"p. c #985C81",
"a. c #724668",
"s. c #442B49",
"d. c #623A5E",
"f. c #663D60",
"g. c #452E49",
"h. c #2C2338",
"j. c #3D2844",
"k. c #30233B",
"l. c #B68288",
"z. c #AD787F",
"x. c #D189A8",
"c. c #AD7C74",
"v. c #B9729B",
"b. c #BD8A8B",
"n. c #B68D7D",
"m. c #92606E",
"M. c #AD6D80",
"N. c #D1B48D",
"B. c #D98CB0",
"V. c #C978A4",
"C. c #E895C8",
"Z. c #E58DC6",
"A. c #E2A7DA",
"S. c #EE8BC1",
"D. c #875182",
"F. c #BF68A2",
"G. c #E57EC1",
"H. c #EE85BF",
"J. c #DA79AF",
"K. c #91577D",
"L. c #6B3A66",
"P. c #BF759B",
"I. c #F298BC",
"U. c #F99AC1",
"Y. c #D97EAF",
"T. c #765971",
"R. c #77727E",
"E. c #9D6489",
"W. c #E887B9",
"Q. c #F99DC1",
"!. c #F090BD",
"~. c #635B6A",
"^. c #AE7392",
"/. c #EE92BA",
"(. c #E47DB8",
"). c #C6AD8E",
"_. c #C9AD8F",
"`. c #BA8092",
"'. c #F194BC",
"]. c #EA8DB8",
"[. c #FFE1AF",
"{. c #FBD59D",
"}. c #B18680",
"|. c #E787B7",
" X c #E086B1",
".X c #D47BAA",
"XX c white",
/* pixels */
"        . g h j k X o O + ",
"        @ l z l.x c v b # ",
"        $ n m z.M N x.B V ",
"    % & * C Z c.v.b.n.A S ",
"  % = D F G H m.M.N.J K L ",
"  - P I U B.Y V.T R E D ; ",
"  : W Q C.Z.A.S.! ~ > , % ",
"< 1 ^ / D.F.G.H.J.( 2 < % ",
"3 ) _ K.L.P.I.U.Y.` ' 4 5 ",
"] [ { T.R.E.W.Q.!.} |  .5 ",
"..X.o.O.~.^./.Q.(.+.@.#.5 ",
"$.%.&.*.)._.`.'.].=.-.;.% ",
"6 7 :.>.[.{.}.|. X,.8 9 % ",
"% 0 <.1.2.3.4.5.6.7.8.q   ",
"5 9.0.q.w.e.r.t..Xy.u.w   ",
"5 i.p.a.e r t s.d.f.g.y   ",
"% h.j.k.u % i p a s d f   "
};
