/* XPM */
static char *_4f1d4663eb94434c2874fd4317a7d9fOTC7TwupD7nsIo81[] = {
/* columns rows colors chars-per-pixel */
"28 28 140 2 ",
"   c None",
".  c #2C0033",
"X  c #3F463C",
"o  c #41473D",
"O  c #41493F",
"+  c #454E42",
"@  c #484F43",
"#  c #475045",
"$  c #4A5246",
"%  c #4E5649",
"&  c #4F584C",
"*  c #51564A",
"=  c #545A4D",
"-  c #595D4F",
";  c #595E51",
":  c #5D6253",
">  c #616456",
",  c #636758",
"<  c #666959",
"1  c #6B6C5C",
"2  c #6E705F",
"3  c #6F7160",
"4  c #747463",
"5  c #797764",
"6  c #777967",
"7  c #7B7967",
"8  c #7D7C69",
"9  c #827F6B",
"0  c #85826E",
"q  c #89826E",
"w  c #868370",
"e  c #898671",
"r  c #8D8974",
"t  c #918C76",
"y  c #948F79",
"u  c #96917B",
"i  c #9C957E",
"p  c #A39A7F",
"a  c #ABA07C",
"s  c #B5AA7F",
"d  c #9E9780",
"f  c #9F9881",
"g  c #A09781",
"h  c #A39C84",
"j  c #A89F85",
"k  c #A6A087",
"l  c #ACA285",
"z  c #ABA389",
"x  c #B3A986",
"c  c #B0A78C",
"v  c #B4AA8C",
"b  c #B8AE8B",
"n  c #BEB386",
"m  c #BDB38D",
"M  c #B6AE92",
"N  c #B8AF92",
"B  c #BDB392",
"V  c #C2B686",
"C  c #C2B78D",
"Z  c #C5B98C",
"A  c #CABE8C",
"S  c #C2B792",
"D  c #C5BA93",
"F  c #C9BE93",
"G  c #C6BC9A",
"H  c #CABE98",
"J  c #CEC18E",
"K  c #CDC294",
"L  c #CFC395",
"P  c #CCC196",
"I  c #CFC397",
"U  c #CCC195",
"Y  c #CFC496",
"T  c #CEC292",
"R  c #CBC099",
"E  c #CBC19A",
"W  c #CDC299",
"Q  c #CFC398",
"!  c #CBC19D",
"~  c #CFC49E",
"^  c #D1C491",
"/  c #D2C591",
"(  c #D1C492",
")  c #D2C593",
"_  c #D3C693",
"`  c #D1C595",
"'  c #D1C596",
"]  c #D2C596",
"[  c #D3C696",
"{  c #D3C796",
"}  c #D3C896",
"|  c #D4C896",
" . c #D5C996",
".. c #D4C897",
"X. c #D6CA96",
"o. c #D6CA97",
"O. c #D2C798",
"+. c #D3C798",
"@. c #D2C699",
"#. c #D1C69B",
"$. c #D0C59D",
"%. c #D3C89B",
"&. c #D4C998",
"*. c #D5C998",
"=. c #D7CA98",
"-. c #D7CB98",
";. c #D6CA99",
":. c #D5C99A",
">. c #D4C89B",
",. c #D7CB9A",
"<. c #D7CB9B",
"1. c #D5C99C",
"2. c #D7CB9C",
"3. c #D6CB9E",
"4. c #D7CB9E",
"5. c #D8CB9A",
"6. c #D8CC99",
"7. c #D8CC9A",
"8. c #D9CD9C",
"9. c #D9CD9D",
"0. c #DACE9C",
"q. c #DBCE9C",
"w. c #DACE9D",
"e. c #DBCF9D",
"r. c #D8CD9F",
"t. c #D9CD9F",
"y. c #DACF9E",
"u. c #DBCF9E",
"i. c #DBD09E",
"p. c #DCD09F",
"a. c #D1C7A1",
"s. c #D9CDA0",
"d. c #D9CEA1",
"f. c #DBCFA0",
"g. c #D9CFA4",
"h. c #DDD1A0",
"j. c #DDD2A2",
"k. c #DED2A2",
"l. c #DED3A3",
"z. c #DED2A4",
/* pixels */
"  . . . . . . . . . . . . . . . . . . . . . . . . . .   ",
". a.C F Z ' ' t.o.7.o.t.t.p.o.t.<.o.t.<./ ' ' %.+.Z F . ",
". B S C U U +.t.z.o./ t.l.l.7.l.i.t.t./ <.3.Z Z C D S . ",
". b l H H U Y J T o.J / t.l.l.J o.5.<.o.' V n s H x B . ",
". c m m m D F T +.3./ <.} <./ <.d.<.<.d.U W W R a B p . ",
". v c l b ~ F F V +.T <.t.' d.' A ' Z g.U H R B S j h . ",
". z z B B G F D F U U 3.<.Z Y Z 3.U +.n $.D m l N M j . ",
". h v l c B B m D C F U C n F F F F C D D m v b z h i . ",
". h u z v c B b b D D n H R m D S F a.S x x v v N M t . ",
". r y z h z l p B b m D m ! x m B x m b l t p h d 9 f . ",
". f h j d i h N B l l l G B b l b p v B z z z z u k t . ",
". u 5 0 f h h i i z z j j h z i i p l c i i j i y 9 e . ",
". t 0 t h h i i h j z j N h c i h j i i z f t r i e r . ",
". w u u y h u u z j z z y l v c z i j l z i i i r w 0 . ",
". e t 0 y i y f 5 u z i i j h z M z z y t u f h e t r . ",
". q u r r i h z j z j c i y z z d z h z y i f r u 0 t . ",
". r e u r r f t i r g u B z M h j q i u j y 0 u r t 7 . ",
". 7 5 0 e u i t 0 i y t r i y i z t 9 e r r t 0 9 9 u . ",
". 7 9 9 e e 9 t e 0 0 h 0 r d t r r r u 0 r 9 4 0 0 4 . ",
". e 4 4 9 4 7 e r 5 8 5 0 0 r 0 8 8 8 7 w u 7 8 5 7 1 . ",
". 4 4 4 < 8 4 4 7 8 8 4 < 4 8 4 8 8 8 4 < 1 4 4 8 4 4 . ",
". 8 2 1 < 1 < 1 3 2 6 4 < 1 1 1 1 1 4 < 1 < 4 8 1 1 4 . ",
". 2 4 < > < < > : - ; < : > , < < - > < : > < : < 1 1 . ",
". 3 > , < - - ; , : = * > * * - ; * * = - * , = : < , . ",
". < 1 ; ; ; = = = % @ % % % * = $ % $ % * * : = : : 1 . ",
". < - = ; % $ % % O X + % & $ $ # + $ O $ * + % * : > . ",
"  : % * $ $ + + O $ X O + + $ O + @ $ # + o O o = * :   ",
"    . . . . . . . . . . . . . . . . . . . . . . . .     "
};
