/* XPM */
static char *_e5cef04e92b4f41c0ffbf4446ee9797ayjvM8XrQKIPfVi5[] = {
/* columns rows colors chars-per-pixel */
"36 36 139 2 ",
"   c None",
".  c #040403",
"X  c #070807",
"o  c #080A07",
"O  c #070108",
"+  c #0A010C",
"@  c #0A0C09",
"#  c #0E110E",
"$  c #10120F",
"%  c #0F0011",
"&  c #120215",
"*  c #140B15",
"=  c #17011B",
"-  c #1A021E",
";  c #160919",
":  c #1A0F1B",
">  c #131512",
",  c #161915",
"<  c #181B17",
"1  c #171018",
"2  c #1A1D19",
"3  c #1E211D",
"4  c #20231F",
"5  c #1E0322",
"6  c #210026",
"7  c #24012A",
"8  c #28082D",
"9  c #221224",
"0  c #29112D",
"q  c #2C0033",
"w  c #2E1033",
"e  c #2F1B32",
"r  c #35103B",
"t  c #361D39",
"y  c #3B1E3F",
"u  c #222622",
"i  c #262A25",
"p  c #282C27",
"a  c #2D262E",
"s  c #2A2E2A",
"d  c #2E322E",
"f  c #30342F",
"g  c #36223A",
"h  c #323632",
"j  c #363935",
"k  c #383C37",
"l  c #3A3E3A",
"z  c #3E423D",
"x  c #40443F",
"c  c #3F3341",
"v  c #4C384F",
"b  c #4B2851",
"n  c #4F3554",
"m  c #513355",
"M  c #553859",
"N  c #593B5E",
"B  c #424642",
"V  c #464A45",
"C  c #484B47",
"Z  c #4A4D49",
"A  c #4D514D",
"S  c #50534F",
"D  c #4F4750",
"F  c #545753",
"G  c #525652",
"H  c #545853",
"J  c #545854",
"K  c #555954",
"L  c #555955",
"P  c #565955",
"I  c #565A55",
"U  c #565956",
"Y  c #565A56",
"T  c #575A56",
"R  c #575B56",
"E  c #575B57",
"W  c #565A56",
"Q  c #585C57",
"!  c #585B58",
"~  c #595B58",
"^  c #585C58",
"/  c #595D59",
"(  c #5A5E5A",
")  c #5B5E5A",
"_  c #5A5E5A",
"`  c #5C605C",
"'  c #5D605D",
"]  c #5D615D",
"[  c #5E625E",
"{  c #5F625F",
"}  c #5E625E",
"|  c #606460",
" . c #616461",
".. c #626561",
"X. c #626462",
"o. c #626662",
"O. c #636662",
"+. c #636663",
"@. c #636563",
"#. c #656865",
"$. c #676966",
"%. c #676A66",
"&. c #676A67",
"*. c #666966",
"=. c #686B67",
"-. c #686B68",
";. c #6A6D69",
":. c #6A6D6A",
">. c #6A6E6A",
",. c #6C6F6B",
"<. c #6B6D6A",
"1. c #6E716E",
"2. c #6E726E",
"3. c #6F716E",
"4. c #707370",
"5. c #717471",
"6. c #737572",
"7. c #747774",
"8. c #727572",
"9. c #757875",
"0. c #767975",
"q. c #777976",
"w. c #777A76",
"e. c #767976",
"r. c #797B78",
"t. c #797C78",
"y. c #7A7D7A",
"u. c #7B7E7A",
"i. c #7B7E7B",
"p. c #7D7F7D",
"a. c #7B7E7B",
"s. c #7F817E",
"d. c #7F817E",
"f. c #80827F",
"g. c #808380",
"h. c #818481",
"j. c #838583",
"k. c #878A87",
"l. c #858884",
/* pixels */
"  q q q q q q q q q q q q q q q q q q q q q q q q q q q q q q q q q q   ",
"q +.) S J l c @ %.4.:.%.+.~ ~ 5 z J ) F J A Z B u # z A J J F J F s b q ",
"q A F F F , h 0 2 S J J ) ) J 6 j z j d u 2 @ . . 9 . p Z J [ [ Z @ V q ",
"q Z A F C X Z F . z J ) ) ) H 6 6 . . . ; 7.h.t.& J 2.. @ d A J s 7 F q ",
"q Z Z F h 9 F A s 6 p j V A l 6 w.k.g.[ A S F 3 d A Z 6.+.. , d 6 p p q ",
"q A F Z > h F F 2 6 6 . @ 3 X & @ j A F J Q A @ Z A A V F t.y 5 6 - . q ",
"q s p 2 . B F Z @ B Q s.r.+ V ,.[ . u V F A d & A F F F F Z V 6 B 2.+.q ",
"q . . g n > B z & A A A Z @ B A A 4.. # p 2 . # l F F F V s . %.. j z q ",
"q s.+.Z +.% 2 2 p A A F z & B A A Z :.Z . a p.B X l A V u . Q F s . . q ",
"q V V z d B . . h F S A s 4 Z Z A B f @ , V V F B . d 2 . [ C Z s Z t.q ",
"q u 2 . . + 6.F # z z k > s Z A l 3 6 6 6 z C V S 6 6 5 -.V V Z s , f q ",
"q 6 +.w.w.Z B F = # @ . . > h s @ + :.B 6 h Z Z V F 6 V V Z Z V 3 . . q ",
"q F B V V V Z B , J w.w.t.B . . ) [ B z u 2 V Z Z Z 3 u A Z B d - > =.q ",
"q z V V V z k u . V z z z B k < z x V V l @ B V Z Z p > z x d . J +.. q ",
"q s d u 3 > . 6 6 z z z z z z . l z V V B + h V B z , . # , . Z j z %.q ",
"q . . . e #.4.-.6 s l z B B l 2 p V V V l 4 < f s $ O l.s.,.6 h z l d q ",
"q 2.2.%.l k j > 6 . u l z z l u @ h z l s # . . . w w.) ) ) H @ s , . q ",
"q d k j l l d . z Z . 3 k d 4 X . . > # . m :.7.B 2 F ) J J [ l . . %.q ",
"q h l l l l , 2 h j F . > @ . 2.k.f.6 6 [ l d h d @ F [ [ [ [ +.* J j q ",
"q j l d l h . f h j h G . :.t.F F J j $ h d d h d , z ) +.J | [ & d s q ",
"q h h j h u 7 j l j j , d A J J J A B @ h h h h d u , ) ) ) [ S 1 2 h q ",
"q , , < , X 2 s j j 2 . l J [ J [ F h X s s h d h j o A ) A f , . . 2 q ",
"q 6 6 t t t . @ , , . M @ h F J Z p . t > 3 s h d h > d j , . Z %.J . q ",
"q B Z A A F h.6.6 6 J A V . 3 h > . 2.[ . , d d h d 3 X . Z | p s u A q ",
"q B C A S A V F l @ p u p J & . v 6.A F ) . u h s 3 @ 6 [ s p p p p 3 q ",
"q V F F A F F F B . u u p 3 V 5 j j z Z F F . < > . 6 6 # u p u u u 2 q ",
"q V F Z F F J J j . @ , 3 p 2 6 . . . $ 3 d : . = -.A :.. @ u u p 2 . q ",
"q B F F J F F Z @ B D . . > X < V #.%.) N . q ) > 3 C Z :.+ @ 2 > . t q ",
"q z A A A A Z s 5 p 2 ) A . . p 3 p u p 2 . s 3 u . B A A %.- . . Z h q ",
"q # u h j f u . u 3 3 3 3 C 5 , u 3 3 3 # > 3 3 3 > u Z F A ) ; Z > 2 q ",
"q +.. . + . . N . , 3 3 3 3 > . > 2 > > . p 2 2 2 u . l A A j @ 3 > > q ",
"q j %.J 6 ) d j a . > 2 3 2 o . . . . . 6 > > , < < ; u l s , . # # . q ",
"q d B A 6 @ # , s > . . @ . r t.s.s.s.h.9 . . . . . X . X . 8 @.. . l q ",
"q X h l j . > < @ & s.4.6 6 [ V B B B B u s +.[ ) ~ F & ,.w.Z C -.O . q ",
"  q . > p % X @ . s 3 2 4 . 2 2 2 2 2 2 > . @ @ @ X X ; 3 3 4 4 > . q   ",
"    q q q q q q q q q q q q q q q q q q q q q q q q q q q q q q q q     "
};
