/* XPM */
static char *e4bf37851c344eeaa4d49cb954a98162JRiLfQCPvGEfXj9U[] = {
/* columns rows colors chars-per-pixel */
"32 32 15 1 ",
"  c #433F3D",
". c #4E4A47",
"X c #66605D",
"o c #151313",
"O c #211F1E",
"+ c #D0C5BD",
"@ c #6D6764",
"# c #252322",
"$ c #3B3836",
"% c #3C3936",
"& c #66605C",
"* c #0F0E0E",
"= c black",
"- c #010101",
"; c white",
/* pixels */
" .XoOOOOOOOOOOOOOOOOOOOOOOOOoX. ",
".+@#$%%%%%%%%%%%%%%%%%%%%%%$#@+.",
"X@&*========================*&@X",
"o#*-========================-*#o",
"O$============================$O",
"O%============================%O",
"O%============================%O",
"O%============================%O",
"O%============================%O",
"O%============================%O",
"O%============================%O",
"O%============================%O",
"O%============================%O",
"O%============================%O",
"O%============================%O",
"O%============================%O",
"O%============================%O",
"O%============================%O",
"O%============================%O",
"O%============================%O",
"O%============================%O",
"O%============================%O",
"O%============================%O",
"O%============================%O",
"O%============================%O",
"O%============================%O",
"O%============================%O",
"O$============================$O",
"o#*-========================-*#o",
"X@&*========================*&@X",
".+@#$%%%%%%%%%%%%%%%%%%%%%%$#@+.",
" .XoOOOOOOOOOOOOOOOOOOOOOOOOoX. "
};
