/* XPM */
static char *cae7fc0cc2374cb1b0366f6ca02ced83Cj5JmMxWws0p4OW9[] = {
/* columns rows colors chars-per-pixel */
"57 32 208 2 ",
"   c #33374F",
".  c #2C2D42",
"X  c #2F3146",
"o  c #29293D",
"O  c #2D3047",
"+  c #2D2D42",
"@  c #2F3046",
"#  c #2D2E42",
"$  c #2A2B40",
"%  c #2D3046",
"&  c #2D2F45",
"*  c #31334A",
"=  c #2C2E44",
"-  c #303146",
";  c #2E3045",
":  c #2C2C41",
">  c #2D2F46",
",  c #2B2B40",
"<  c #2E3047",
"1  c #2B2B3F",
"2  c #2F2F43",
"3  c #2F3045",
"4  c #2B2C40",
"5  c #32334A",
"6  c #2A2A3E",
"7  c #2D2D41",
"8  c #2F2F44",
"9  c #2C2E43",
"0  c #2B2C41",
"q  c #2A2A3F",
"w  c #292B40",
"e  c #28293D",
"r  c #29293C",
"t  c #2B2C42",
"y  c #29283C",
"u  c #292B41",
"i  c #2E3046",
"p  c #323349",
"a  c #2F3044",
"s  c #2A293C",
"d  c #282538",
"f  c #27273C",
"g  c #28273B",
"h  c #28263A",
"j  c #262538",
"k  c #28283C",
"l  c #2B2A3E",
"z  c #2A2B3F",
"x  c #292A3E",
"c  c #2B2A3F",
"v  c #2D2C40",
"b  c #29283B",
"n  c #272639",
"m  c #2C2C3F",
"M  c #29273A",
"N  c #282638",
"B  c #2D2C41",
"V  c #2B2A3D",
"C  c #282639",
"Z  c #2A2C41",
"A  c #2E2F44",
"S  c #2E2D41",
"D  c #2E2D42",
"F  c #29273B",
"G  c #2B293C",
"H  c #28283D",
"J  c #28273A",
"K  c #272538",
"L  c #2F3147",
"P  c #2B2B3E",
"I  c #2C2C40",
"U  c #2D2F44",
"Y  c #2E2F43",
"T  c #2D2E44",
"R  c #2A283B",
"E  c #2A293D",
"W  c #2E2F45",
"Q  c #2C2B3E",
"!  c #2C2B3F",
"~  c #2B2D42",
"^  c #27273A",
"/  c #2B2D43",
"(  c #27283B",
")  c #28293C",
"_  c #292B3F",
"`  c #28283B",
"'  c #2A2A3D",
"]  c #2A2D42",
"[  c #27273B",
"{  c #2C2E45",
"}  c #262537",
"|  c #2A2C42",
" . c #2C2F45",
".. c #262639",
"X. c #2B2E45",
"o. c #292A3F",
"O. c #27283C",
"+. c #2C2D43",
"@. c #2B2E44",
"#. c #242335",
"$. c #2C2F46",
"%. c #292739",
"&. c #2D2E43",
"*. c #2E2E42",
"=. c #303249",
"-. c #2E2E43",
";. c #313146",
":. c #303349",
">. c #2C2D41",
",. c #2D2B3E",
"<. c #303145",
"1. c #282A3F",
"2. c #313145",
"3. c #303248",
"4. c #2F2F45",
"5. c #32344A",
"6. c #303147",
"7. c #302F44",
"8. c #313247",
"9. c #2D2D40",
"0. c #27263A",
"q. c #26273B",
"w. c #272436",
"e. c #28293E",
"r. c #2C2A3D",
"t. c #2A283C",
"y. c #2C3047",
"u. c #2B2F45",
"i. c #2C3046",
"p. c #272739",
"a. c #2B2E43",
"s. c #272638",
"d. c #292A3D",
"f. c #2A2C40",
"g. c #2A283A",
"h. c #2A2B3E",
"j. c #303045",
"k. c #282637",
"l. c #2C2B40",
"z. c #2A293B",
"x. c #2D2D43",
"c. c #2A2B41",
"v. c #313044",
"b. c #2B2B41",
"n. c #282A40",
"m. c #313248",
"M. c #26263A",
"N. c #2F2E42",
"B. c #2F2D41",
"V. c #2E3147",
"C. c #2E3249",
"Z. c #2D3147",
"A. c #2B2D41",
"S. c #2E3148",
"D. c #2B2F46",
"F. c #252539",
"G. c #2F3047",
"H. c #2B293D",
"J. c #292638",
"K. c #272537",
"L. c #303044",
"P. c #282B40",
"I. c #323146",
"U. c #29283A",
"Y. c #262539",
"T. c #30334A",
"R. c #2E2C40",
"E. c #2D2B3F",
"W. c #2F3249",
"Q. c #2F3349",
"!. c #2D2F43",
"~. c #2A2C43",
"^. c #2B2C3F",
"/. c #28283A",
"(. c #282A3E",
"). c #29293E",
"_. c #2F2E43",
"`. c #313147",
"'. c #313246",
"]. c #2E2D40",
"[. c #303247",
"{. c #2D2C3F",
"}. c #282739",
"|. c #31344B",
" X c #303348",
".X c #2E3146",
"XX c #2E3248",
"oX c #2C2D40",
"OX c #2A2D43",
"+X c #2C2C42",
"@X c #26273A",
"#X c #262638",
"$X c #252538",
"%X c #252335",
"&X c #292C42",
"*X c #2F3248",
"=X c #303046",
"-X c #2C2A3E",
";X c #2C2E42",
":X c #313348",
">X c #252436",
",X c #292C41",
"<X c #282537",
"1X c #2F334A",
"2X c #2B2D44",
"3X c #2F3148",
"4X c #2E3044",
"5X c white",
/* pixels */
"  . X o o O + @ # $ % . & + * = - ; : > , , < : O 1 2 3 . & o 4 3 * 5 @ o 6 O 7 - 8 9 % 8 0 q w e r t y u o i : p ",
"a s + d f g q h j f k y l z x c v b x y n m : . 7 M N z o B V C Z r A y C x 6 + S D A l c F k y G V M H J K 1 l L ",
"3 l q P v b y r b I C 1 V U y + P Y 7 + N A S T J I R A E W Q l # 1 z I r x : 1 + z A Q : J w g 7 ! A 1 : N ~ ^ i ",
"/ q 0 4 ( 0 ) _ ` = 0 & ' w x ] [ / J { y ] } | g  .r ~ ..X.../ g z 4 ~ o.~ O.[ +.0 +.^ 0 J / ../ r = 6 | k @.#.$.",
"@ %.&.E | l 9 G + *.=.l -.E : 6 . 1 l b 7 V : 4 4 4 s 7 b = 7 + G : P ~ E +.N 7 ;.:.V 7 G . 6 Z 7 V E I 4 z >.,.>.",
"<.b &.g 1.J o.b k O.q o *.0 x I 8 E Z J E # 8 X 7 o n . E # S E = 6 . l ' Z E &.2.3.4.I : l t 1 S 7 s Z b ` # 8 :.",
"5.v >.C y o R Q V E o s B I 6.7.2 Y : z R 1 8.1 . b Q -.1 0 M s A W &.9.g 6 $ ' *.7 0 >.: q , O.0.r . q q.C 3 l - ",
"i r z w.! 4 # ! v s e.j 4 Q A 1 7 : *., r P z ' &.s G e E &.M P b 9 *.&.N 1 7 *.P y g &.r.E K I R t.s M I V 6 l 8 ",
"y.j u.k @.o i.r @.^ @.p./ ^  .$ 9 ) w 0 w a.Z _ 6 / 0. .^ a.o $.^ X.s.@.y O ` @.` @.e ] d.% $ = k / k ~ k ~ | f.@.",
": g.>.z 4 7 l V B z h.+ G m V 3.j.1 k.&.E ~ ! : g.# -.i s v V : z 6 l.V v b l , 0 6 . R *.! =.2 >.z.. 1 Z 6 x.R W ",
"3.B 7 k E c.s v *.4 4 1 I 7 -.$ v.&.s c.l 1 : l &.6 *.+ E . n o 7 6.-.v ' C $ s 8 ! x 4 2 o b.[ o y $ g n.` &.M - ",
"m.l 4.N M.0 . 6 J [ 0 6 : I . >.*.' x , g m x.-.A b b : ! &.V b . : 8.1 M 6 &.-.N.2 3 : B t.y 6 s G F J y C : v p ",
"8.! : V + b 1 R b >.M l v ; q 7 *.2 A I M 3 ;.L 1 m R ; 1 j.B.l W 1 . m ' ~ : # 8 &.- 9.. y w E S # *.&.! M &.' :.",
"% 0 / 9 x ~ e./ o = $ V.q = x $.o $.' C.o $.J y.^ V.6  .k Z.y  .0 ~ A.& Z Z ~ x = Z % o = [ @.[  .6 S.6  .e D.F.C.",
"&.b x.6 e.! >.R 1 a G.! I r . d.o : E E Q l l e o &.H.! J / ' >.J.: m w y A K.' L.i ' ' s I 6 O.I s 1 B o.o 4 N . ",
"j.C &.g P.` c.s o.` / r Y 1 o P 8 y q s.1 m + 3 B o n >.b # *.P 7 l l., V $ R -.I.=.7 7 ! 1 z : *.Q b o.6 r 7 7.@ ",
"m.! : J o n b R b E ` t.v . -.N.N.S &.o U.: m.>.. b s &.1 : s b A 7 . P ` 0 x c *.&.&.I 0 6 +.f b 1 : ~ Y.N 8 1 3.",
"T.1 4 s.l 9 7 *.R.6 $ ` . v 6.-.2 T 7 9 ' l &.l U s E., 1 U M P I i j.A %.l T S 7 E x W v 6 J 4 F b z M 0 s . l <.",
"W.k X.` % z Q.h.% o @...& 1 V.0 & >.V.~ ~ ; ~ . !.U k ~.d.i P < [ S.V V.o W.^.V.6 / e i 1 V.6 U P & q . 4 U +.. S.",
". w.0 k o.v , b 4 M.$ 1 E J 1 W Y /.j &.o o.I 1 d : l & J 1 s &.k e b 6 V 6 b 0 ` x I y Q I W 8 r b 1 I [ 6 . s A.",
"&.! 1 e q (.b V + 0 o : V 7 P ] 2.# %.o.E 0 1 1 ! 1 *.. b , 0.o I &.: V 1 K.e y &.' ).r Y r { r $ E Z y u y &.N @ ",
":.6 Y n ../ I I E k ~ 6 : ! A 0 _.4 o 0 y l x.! T b V >.1 . b r + &.`.: M y 9 v *.S . . 7 y ` 6 g M y n ).J . l 8.",
"'.l &.b o.F , J 0.o.y 6 v T z I *.m 9 ' J Y j.@ + ' M 9 1 Y ].y = l A V s ~ , &.2 8 [.I >.s $ E {.7 Q ~ s }.+ I |.",
" X. . &.# I 1 . l A 6 ; I .X6 i 4 L # 3.s L 9.XXg i P L P 3.m U a &.. ; 0 Z W >.W 0 L oX& k OXr ; I :.4 ; s $.[ :.",
"A.o +X6 @X4 6 r ` A &.. ' o 1 o.^ 0 J 0 s $ s.(.` U s , #X/ n 0 K z 4 _ e 9 ..J # +., n 6 r f.$X0 b t 1 o.` 0 %X= ",
"@ N &.y &Xr ~ V 0 l % s -.r z E &.E o N I V : . , 6 g I J +.7 I V 4 l 0 E $ N + I.*XV 7 G >.) 0 + s b x z e I S . ",
"- E . J 1.n o J [ e k y 7 0 q l.-.P ~ J b 7 =XT : y J ~ ' >.! b 9 l . E r c.o . 2 W W 1 0 6 t o 1 I l | 0.}.-.: W.",
"T.m 4 n b o.s v -Xo ).E : I 6.A 2 A I $ b 6 @ ' ~ F ! + 1 Z J r *.W -.7 J o $ l 7 1 z . I 6 ).e.n ` 0 y e.F A 6 j.",
"=.' ~ C 3 >.3.I 8 P Z ..A 7 L : W A m.;X4 Y . + 3 7 H.o.1 6.V A b V.*.X R @ -.[.m $ k [.v -.s A Q + 1 ! *.# . 7 :X",
" .>Xa.( ,X6 @.` ~ $X~ ` $ s.~ 0 +.p.O.. o.$ 4 x J t ^  .n Z r  .^ u s.Z y / J ~ ^ Z 6 o.E = 0 &.^ o.r 0 M.4 t 6 Z ",
": r.4 x $ , s s B $ o . R : s > 2.I <Xt r Z P I G : -.T b m y q z $ : s I N 6 6 ~ o 0 M -.s V.I >.G +.E ,Xo &.N ; ",
"1X, # e o &XE # -.$ | : &.7 @ | j.; l ,Xz 1 U 1 2X6 *.&.o t ` o.+ 3XU # x g &XE 4X: o.~ A $ c.1.e.o | k &Xx W E 8."
};
