/* XPM */
static char *e49338ff4f924e2cb364f949c0818c1dVvxMFLDQobkmKI46[] = {
/* columns rows colors chars-per-pixel */
"63 63 217 2 ",
"   c #695338",
".  c #675237",
"X  c #685337",
"o  c #675236",
"O  c #6A5539",
"+  c #6C563A",
"@  c #6B5539",
"#  c #6E583B",
"$  c #6C563B",
"%  c #665136",
"&  c #665236",
"*  c #695438",
"=  c #6A5538",
"-  c #685236",
";  c #6A5438",
":  c #655135",
">  c #634F34",
",  c #645035",
"<  c #634E33",
"1  c #665035",
"2  c #695337",
"3  c #6C573B",
"4  c #6C573C",
"5  c #6A5439",
"6  c #6B563B",
"7  c #644F34",
"8  c #614D32",
"9  c #645034",
"0  c #644F33",
"q  c #5D492F",
"w  c #624D32",
"e  c #655034",
"r  c #665135",
"t  c #6D573A",
"y  c #695437",
"u  c #685338",
"i  c #655136",
"p  c #685237",
"a  c #644F35",
"s  c #685336",
"d  c #6B563A",
"f  c #624E33",
"g  c #624E32",
"h  c #604B31",
"j  c #654F34",
"k  c #675135",
"l  c #675235",
"z  c #6A5437",
"x  c #6B5438",
"c  c #5D4A31",
"v  c #675337",
"b  c #655036",
"n  c #655035",
"m  c #6B5639",
"M  c #6C573A",
"N  c #604C31",
"B  c #614D33",
"V  c #6E583C",
"C  c #685438",
"Z  c #665034",
"A  c #6C5639",
"S  c #5F4B30",
"D  c #6B5538",
"F  c #6D583C",
"G  c #6D573B",
"H  c #675336",
"J  c #634F33",
"K  c #634E34",
"L  c #614E33",
"P  c #634E32",
"I  c #685439",
"U  c #665134",
"Y  c #634F35",
"T  c #6A563A",
"R  c #665237",
"E  c #695439",
"W  c #695336",
"Q  c #6F593D",
"!  c #6D583B",
"~  c #645036",
"^  c #655137",
"/  c #675136",
"(  c #695539",
")  c #6A553A",
"_  c #705A3D",
"`  c #675238",
"'  c #735D40",
"]  c #6B553A",
"[  c #604C32",
"{  c #5E4B31",
"}  c #6E593D",
"|  c #665137",
" . c #5E4B30",
".. c #6E583D",
"X. c #6B573B",
"o. c #6F5A3D",
"O. c #705A3E",
"+. c #59462E",
"@. c #715B3E",
"#. c #685339",
"$. c #6D573C",
"%. c #715B3F",
"&. c #5C4930",
"*. c #6E593C",
"=. c #58462E",
"-. c #55442D",
";. c #56442D",
":. c #6F593C",
">. c #624E34",
",. c #5E4A31",
"<. c #624C32",
"1. c #675338",
"2. c #735C3F",
"3. c #5F4B31",
"4. c #705B3E",
"5. c #58452D",
"6. c #6A5639",
"7. c #725C3E",
"8. c #59452D",
"9. c #59472F",
"0. c #5B4930",
"q. c #5C482E",
"w. c #725B3F",
"e. c #735C40",
"r. c #5B472E",
"t. c #6B573A",
"y. c #745D41",
"u. c #6F5A3E",
"i. c #6F593B",
"p. c #5B4830",
"a. c #6C5638",
"s. c #715B3D",
"d. c #6C5739",
"f. c #59472E",
"g. c #5F4C32",
"h. c #685235",
"j. c #655134",
"k. c #655033",
"l. c #635034",
"z. c #715A3B",
"x. c #715A3D",
"c. c #624D31",
"v. c #614D31",
"b. c #715C3F",
"n. c #6D583A",
"m. c #654F33",
"M. c #5E4A2F",
"N. c #6A5436",
"B. c #614C31",
"V. c #5C492F",
"C. c #5D4930",
"Z. c #5E4A30",
"A. c #624D33",
"S. c #6A5337",
"D. c #6C5538",
"F. c #5D492E",
"G. c #604D31",
"H. c #725B3D",
"J. c #6B5436",
"K. c #5F4B2F",
"L. c #634D32",
"P. c #5F4C31",
"I. c #725C3F",
"U. c #685335",
"Y. c #634F32",
"T. c #644E32",
"R. c #6E5839",
"E. c #6B5537",
"W. c #5F4A2F",
"Q. c #634E31",
"!. c #6E583A",
"~. c #5D4A30",
"^. c #604B30",
"/. c #6B5437",
"(. c #6E5739",
"). c #70593B",
"_. c #665235",
"`. c #6C5539",
"'. c #5F4A30",
"]. c #644E34",
"[. c #634D31",
"{. c #665033",
"}. c #70593C",
"|. c #715A3C",
" X c #6F583B",
".X c #5D4A2F",
"XX c #6E573A",
"oX c #5C482F",
"OX c #5C492E",
"+X c #6D5639",
"@X c #6A5336",
"#X c #695436",
"$X c #5E492F",
"%X c #604C30",
"&X c #5B482E",
"*X c #604D32",
"=X c #644F32",
"-X c #675134",
";X c #6D563A",
":X c #6D5739",
">X c #6E573B",
",X c #70593D",
"<X c #614C32",
"1X c #56442C",
"2X c #55432C",
"3X c #5A472D",
"4X c #6B5638",
"5X c #635035",
"6X c #645033",
"7X c #624F34",
"8X c #614C30",
"9X c #5D482E",
"0X c #5C482D",
"qX c #5B462D",
"wX c #614E32",
"eX c #6F593E",
"rX c white",
/* pixels */
"  . X o O + @ # . O $ X % & % X * X X = - X ; & : > > % , < > 1 2 3 4 5 6 X 7 8 9 2 7 9 0 o 8 q 9 w e r r e ; # t * ; o * ; y ",
"X * o o @ * * @ X * X o u i X O X r r p * u & , : > > > a > & o s @ O X d % f 7 % . f < < % g h j k l 2 2 z x # # X = * % - 2 ",
"c v o y   * @ = X & b n v % * * ; s k o m M . % f N B n i , & 2 z ; u O V * > & C u 7 % r s 0 0 Z - o y - - @ d + - @ 2 7 r 2 ",
"X m , % @ m A @ X d * o & : % . o X X : X @ m o S w n . > > % @ D z X d F X 7 9 i u 7 r o X 0 w e o s s l e X @ G @ + * - H X ",
"X = ; X @ @ = u i O u * % n J n * % . X * 5 @ < 8 e o . K L % 2 - y O u * < P f b I n A = k s r r 0 U - k z y O G + * o X . > ",
"D D t X O d % Y Y . * ; n r o e o J & p O + @ o o X . X , K n n % O T R - Z < > . E > m = - r r n n r 2 W 2 A Q ! * p % v R % ",
"O @ + ; d m , ~ ^ u O O X X 2 o r e n / O @ = 2 X o n 9 9 . ( % 7 C ) * l - o * C ( e z 2 * 7 > . X - y D D G _ + n r % % v n ",
"O ; X % O ~ ` E * u @ * u X + * o - e ; d ; = r n % 7 o % C O u , . $ * X e X + 3 + ; + y & > > , % z z y W M V + o r % & . n ",
". : O Q ' Q + # i & d d O % E O * o s @ 5 X * o * u X d & , * O % p @ 5 o , s m G 3 X 2 X i B B > v @ = y - M G 5 u . X * 7 < ",
"n , R G + d u * Y R * # M . d m m r X + . n ; X X X & & K & O ; u * ] R > & o o m ! s - 1 n [ { B r X l z m V } F O 5 r X 7 w ",
". ( X F V F u ( | n v G + X 3 d * X * v O X O O n . o  .[ R + O u & % % r * * r X V ; s % : 7 8 9 % , % d M V ..T @ . K e 8 < ",
"d _ 3 V G X.O 3 d @ O G O ] G @ % . E i E E $ + % R . 8 f u O ! d % * X u v * r * + @ X > > : n C O % > v G o.O.v & a o k f +.",
"@.O.F G $ 6 + G G t G d O O d @ n > E d O 5 ; m & . u i n , * ! + . O % #.u v C O ! m * : n X % u * * . : $.O.%.d * B > [ &.Y ",
"_ F + G 3 3 * O ; * X * . - @ * < f * $ u i & X n > n i X o ( G O O * . E d . . + *.d d * * d i , X O d u E O.Q 3   =.&.-.;.  ",
"G 3 G G + F O O o X o 7 o f J n K & u ) | B K O ; o o u n n + d O O X % G d . n * ) ) G + V 3 X i v * O   + :.G X n ~ >.,.i :.",
"D ; 2 m F G O M o o X % i [ J & > , , R Y [ f % ; m * v , n * O u * d + V + u . R E $ ! + V :.O * X . o a 3 G # d ! V r <.X D ",
"@ @ * = V d @ A - r s u , f o @ > B , u 1.% . M ! m * r n . o n o 7 O + G O v %   * ) d @ G G O @ C i % E ! _ V 2._ o 7 3.X M ",
"G + m ; * u O D o r . i , . * @ . % i ] 3 3 O 3 ! @ 2 7 , X o Y , > ] G 3 X 9 > X O ] + 3 O ; d O R % O } 3 % 5 V + r [ 8 = G ",
"G @ = v 1., ; - r o . o E E * * * C X n | $.$.} + * X r : - 2 , >.| d 3 F * & & X G # # 3 t G m O O O G 4.O f o @ * 5 5.7 * d ",
") E u E u & * . o o X X ; y X X * 1.O u . u . G ..O o : o o r 7 i E 3 3 F d d M 6.O * * M *.# = X m 7.V V X n * ; X 7 8.7 O Q ",
"C 9.0.% 1.u * u . * * * ; m o C ( d 3 d R R > 3 @.Q ; % o e * ) u u d m + u : * d M M y X t t = X ; @._ d 2 2 + D m N q.J = _ ",
"E . R E F O y X u * @ o 2 d O T 3 ) F F ) , > F w.e.+ n o o * ] F d d M V d . % u M M ; y k D + = = :._ :.+ ; O X = N r.o # Q ",
"3 F G t.O O ) u * . = 2 ; * M m 3 6 T 3 6 u . + %.y.Q o * C n % d 3 Q ! V M ; X @ _ O o m t A m d M V u.M m y X ; ; s 8 ; i.! ",
"p.C # 3 O X m ; 2 = m ; ; e r y 3 3 d d T d M * G e.V 5 O T O * * u G G t d % A t # z D a.@ A X @ M O.O.X + = = m + * 8 2 t m ",
", * s.# $ . k U r ; 2 l D l r s = @ + ; u y D * X V 3 X o 3 F O v ~ E ) 3 d O A t t D t d.t m X * O m ! * O M :.G   f.g.z M @ ",
"+ @ s.G O e Z W l 2 l k - - - s - ; ; m d O G * 9 5 u 8 : d F * % Y E * ) d m M + + + * + * @ z = O * * O . = :.:.m y m ! O E ",
"O A s.F X 0 h.s l - j.k.W l l s 2 o M *.F F Q + X , : n O 3 3 v l.7 * O d + + O O d ( R * t @ @ M O O @ X r o G t z z.A M ; d ",
"m m G Q , 0 - j < l k k 2 2 [ 7 o 0 X m O X o o X e r - y G F C % % d t t ! O M # G O O O + ; A t X * A H r y + m ; - x.*.X m ",
"9 9 X :.% - 2 : r X o < J = - y o l s X j.c.v.0 l - - o W + G m X 2 V *.o = d ! o.V m m H o ; ; m X X X o l O d * O A :.d y * ",
"w 7 X t - s J B s v n f 9 t @ = e 9 - ; e v.w U h.y D X / @ ! X 2 A # A y = @ ! b.O ; m X r s y z * : r s s G V ; * n.*.d * 9 ",
"J 7 o r 8 X o o y - J J m z s A o : - y l 0 < r m.e 0 s X ; * r s r r y z D 2 s = s 1 e l y 2 r - D - r W h.X v X n O M O O % ",
"w g f 8 8 m @ O r e r - - Z k - k o s - r 8 f U 0 8 M.8 e 7 g k U r 8 k z t W W s W h.r 7 @ m o 9 N.W r s h.W r e M M d u % n ",
"B.V.C.Z.J o s @ s e n 7 7 0 k.h.r o s y r : n s k P q M.J J g 8 < r o o X e P h.N.A X ; s D @ m = = 2 W k y W e > *.:.G E 0 g ",
"P S 3.A.e r h.k - n f 3.< 0 k S.= = r o X r r D.l F.M.w 0 0 w g e : o o > 0 w m.h.s l D t H r d M V :.l - z e 8 A.# :.+ X < w ",
"w < w < r r s 0 0 7 J g G.< s 2 y A 2 * ; U a.H.J.K.M.k.W k L.P e s o y 9 e e e g 8 0 o f P.: * M @.I.X W U.o > 9 t + = k o r ",
"w 3.Z.P 0 j.n < 0 k 0 Y.< r D z s s - * r T.l a.R.E.Z e N.l P 0 e k 2 h.l W U k.e N N e N 3.o o m + ] 9 l s 2 s e J B : s s e ",
"B.V.W.w g 9 0 e r X r 0 e r o e k.e e e P Q.c.a.!.z g P.e l k 2 2 o D z 2 D k k.m.g N 8 0 0 o o : e r k ; z D N.- 8 [ ~.: X r ",
"3.v.^.N J 7 9 r e % r k.l r n r 0 o k 0 Z /.(.)._.w M.~.N J e s e f o W k U P e e k j w 0 o s o o e . ; @ `.D e s n n n o 2 r ",
"^.w '.]., 9 0 g 9 l [.{.l 7 o r 0 y # }.}.|. Xz ^.F..XP.8 w U h.r r e k.< 0 0 h.z /.z 0 P e l - U.e y z XXXXe < o f n % l @ z ",
"h Z.oX7 , 7 f J & l B.< s N s l j.y t = e 0 Y.v.B.OXq g J g e W s r k.k - e k.W +X@Xl U r o o D s #Xz W D.!.z A = s o % : D # ",
"t 0 q.Z.$Xe 0 < 7 9 N > m ; X r l 2 2 P ^.P k.k.e N M.S %X%X8 n X m.k.z z 0 U z +XW r - z o r D W z 2 0 l @ = 2 X D s H e y t ",
"XXW &X< ^.w f *XB B f ; A = = 9 9 2 z e w 0 U =Xe < 3.~.B.N [ e 9 w < 2 y r k 2 W l 0 l U 0 N s W W z U o ; y / r k U s e X @ ",
"#Xk 7 l e B.r 8 { 3.: A - s A - o s 2 e g J U 0 e 0 N < J B.g r g c.7 e r o k -Xy l P l U e 0 l - W h.W /.; ;X# D l -Xz X @ D ",
"s r = :Xs B.r < [ J j.o z z D z l l o 9 B > < w J f N e N v.7 e v.c.0 e 9 U {.Z ; 1 < U 0 k h.N.z -XZ h.W = @ # A z - 2 t }.`.",
"e e D !.|.7 9 U r o J l z s 1 e J 0 s e n s g < 7 8 < 9 N P 0 e 0 ^.w 7 < e U h.+ 5 0 U 7 Z s D.z k.Z l U W = = D +Xz -XW a.h.",
"c.l = XXH.y e D r < 0 #Xs h.e r e o X r r W h.l w 8 e e J K.P 7 n r B.< 8 9 - 2 m 3 X s r Z D D.s k.Z m.0 D D ; t XX Xl k.{.h.",
"0 h.2 - XXD J A - r o A y 2 y = r o X & r z y r g g e n P P - n r W r k < % 2 ; @ d = o o k z y s l -Xk.0 A +XV :.@ >Xz U k.k ",
"l r e k D 2 oX= 2 r X D W 2 X A 2 2 ; W U l -X0 < 8 < < < o 2 o r z W e % * ; z ; ] ; o k l 2 /.z z -Xl y A t :.,X; ; 2 X l 0 ",
"0 <XX ; D ; h y 2 e X D D z W m = = m ; - l U J N N 8 B.0 - y - U s - O E O @ A A + 2 ; 2 2 2 +Xz = - k y = ; t x.; @ - e l k.",
": N K * * a.z z 2 o o r o r Z D = @ @ @ z l 0 8 S S V.Z.g e = @ l -XU & X @ A + A O * # t X Z = 2 r o /.z @ = O :.= t D J 9 r ",
"l 1X2Xr - ; ; A z s s : 9 9 r = r ; A ; - r c.^.N N oX&XS 9 A + ; s e f 7 * m ;   V @ ! G * < X r r D E.+XA = & + ; r s 2 e e ",
"o Z.Z.y z - [ r z s s y o r o - k k = & n s U < B.<XZ.3XS < ; ; d O 2 ; . . ; X p _ t A * ; / r Z r Z h./.@X7 r @ ; % X r 7 : ",
"r 7 3.7 ;X+ K y 4X; X u y . . . y Z = R i v l 8 Z.M.$Xq.F.< z D y O @ @ E ; * o X 3 = G ; o n r 7 U U 0 r - e 0 D ; n @ a , r ",
"U < r.<X X X< A = + ; . % & % %   ; r , 5X& % < N M.F.W.F.P s m * 3 $ $ 3 5   / * V 2 @ 2 n 7 - 2 Z W U e 6XN k = D n _ @ n > ",
"U e '.< = r / A . @ X o X 7 Y , r ; ; 9 7X, > > > w 8X9X0XB.X @ p * * ) O * C R G _ ; ; = 9 r e e k D s r f 7 z m !.X ] V 9 g ",
"J A.qXh X r X + * ]   o   7 K : . * @ 2 % % , f f 8 Z.q w 1 X * p X o . X s o u ) o.= ; 5 . o 1 - h.- - - - ; - >X@.; % *   r ",
"f Z.5.&X9 9 > 5 u 6 . . E & > : X O X = X X ; wX*XN B.o o . . X v * M @ 2 A r . d 3 r * I E n X : l e 7 - X 9 e # O.V X . ; % ",
"<Xq.h > n k o * u u i 9 n 7X: 2 s o < k o l W r 9 v.> v o o % u X 5 V # * O % & O d o y , : r D 0 U s l w r k W d.*.X X * 2 8 ",
"2 A.7 o m ; X & X p % 7 *X~.> . X , J r r e - r n 8 8 > > > : r r r A.. | . i i . * X % o n n / Z.7 r e < < r ; # :.p / ; X n ",
"7 7 o J >.R Y , , : . i f B > i * n n o n r y r 9 f [ 8 <Xr u r & & < e d u , n X * n % O % r 8 < 0 e 0 r 9 0 = t $ + 5 o - - ",
"r o : [ > b [ a * 1 f 7X>., [ > X % r o X 2 @ p f f f 7 n @     O 3 E 2 F C n r X H e O *   ; X j o - < e 1 r + + p @ t - s y ",
"X ; 7 Z.  u b & + . 7 o f f [ J o o y 2 X y t X > 7 , : : % X 2 * d 6 F } C J e % o o y X W 2 ; ; ; n h e r z @ G ; G # o o y ",
"X p n f O * o ; * % . n < % 9 n r X A ; o X m X 7 > 9 X 9 7 e o * d O 3 eXv < < < * o r o l X m G 2 A.N w 7 z D O X d # X A >X"
};
