/* XPM */
static char *_af248e8959a4e7d9f32db9b44c7e520bJfUJPdaD87MZc2O[] = {
/* columns rows colors chars-per-pixel */
"110 62 62 1 ",
"  c #1E1724",
". c #1F1825",
"X c #1F1C2C",
"o c #1F1E30",
"O c #201926",
"+ c #221D2D",
"@ c #211F30",
"# c #26202F",
"$ c #28212F",
"% c #252234",
"& c #292535",
"* c #25263A",
"= c #292739",
"- c #26283E",
"; c #2B2A3C",
": c #312D3E",
"> c #272B41",
", c #2B2D43",
"< c #292D45",
"1 c #282D46",
"2 c #2C2E45",
"3 c #2A2F48",
"4 c #332F41",
"5 c #302E42",
"6 c #302F42",
"7 c #2C3047",
"8 c #2E3046",
"9 c #2B3048",
"0 c #2D324A",
"q c #2F334A",
"w c #2E334B",
"e c #2F344C",
"r c #2F344D",
"t c #323042",
"y c #313044",
"u c #343245",
"i c #323348",
"p c #333549",
"a c #353448",
"s c #363549",
"d c #34354B",
"f c #30354E",
"g c #31374F",
"h c #36374D",
"j c #38374A",
"k c #35384F",
"l c #39384D",
"z c #2F3650",
"x c #313750",
"c c #333851",
"v c #343850",
"b c #363B53",
"n c #333954",
"m c #373B54",
"M c #363C57",
"N c #3B3C53",
"B c #383C54",
"V c #3C3E55",
"C c #383E59",
"Z c #3B415B",
"A c #3C425C",
"S c #40455F",
/* pixels */
"AMb%Bb;f=fqb=bbyM,fqb5kZyfyVCr;VkaCayqfiypyZkybqp,myBa=bqp;r,bB;SMbiBy,i,qfp;Cpab,frbabync;9<q=f;mb;q<9;BZ;baA",
"q<>*7>+>+,<>%7>=2+><<+*<%,*,<<*2**<%*2<%*;%<*@<<-@2&,2%,<,+>@>2*><22<%**%7<*;<*,*%7<-;>X-*+2>*X>+*-X->,+>>@<*q",
"l=;%a,&%@=&,,==+=+*&,;=;=5*==;;;5&==*==%&t=;,u&5;+=+==;&;5&;%==;=;a:=&&=%=;y5;5:55u&;&y=&=%=&;&==+;@=#=+;5+a,a",
"f,q*9q%q9<+<3%q%>9q%>9%32,9q*<7,q>*qq-;>;q22qr;qq*9*<99*7q;q*,99*>q*<>*qq;*q,>f>rqq;9*q<%9q7*r;qq*99q%q*qq*q9r",
"a%t+*;#&=&&+&&& =&:O%&#@:=,=+&:+,5==5&&O&=a=;;&%=+=O5;,+55=%%=;=&&;+=&%+;=&&=&y+;;;%:&;+&=%&%;&%5==&t+= =;%+,;",
"bqf;,ff;iqf=2fq%pqf=7fk=iqf=<xf=pqf=ffq=pqf=ff,+qff=pqp%qbf%qff;fqp=kf7@<rf=fqi=rfi;fqq%fq-=qq7=ff,;fqi*rq-*ff",
"*99%-qq@%9<+*3f%*9<@>qq+>q>oqq>X<q-X9q<@<q*X>qq+<q<X<9*@q9-X<q9X>9<@qq<%r9-X>q>@<q<X>9>X>q7X<9-%qq-%99%*f<%%9q",
";;;&=y=&%,5&;=@+==u5,5=&t*=====+t=,#==;&===&#;*=&,y#=5&+;,=O;5+O;,;&;=&&,=++;=u:y;&&&&5&*;;+&=a%==;:;=*==;#.=y",
"xf;;ic;q9r=ic,,2xyacxp;f2=2ci=r97;ci;;fi=,xf=q9q=xf;=fp*frx,ff=,qc;2qq;7c2=,c,axc,,c,=2c2;q9,;c7;,x7;qq7,f2;;f",
"p*++;;+=;>+*>+;y;+%,,%+>y=%;%+,,,+;*@+*,&%;;%y;;+**+;,;O;>y%*2;&%-%*,,%*-%+%;t52,*%-y%&-%%;,=t;%%@,%%,>%%>y,*,",
"B5i&ba=>-,=ii*7&,*>=ii;pyp,2=yyyk&y2,=,;,a,pfB&ay=2&7,p&ia5p=y,i;yb;7=57,;ykyahabba;7;by;i>y;a;iy&p>,&2&pa&Bfb",
"q*<%<>+2,;X>-@,X-<2+->+,;-<q%>,;<;*<q%-**<77<,=q,%,@<<<%q<=2@>7<@-<%,**<q**<*-7*<9,*,%<*%<9>%2=,q%<<,@,+,q*<<i",
"Nyl+a;+;%;%t+5;&5&;%5&=a&,&lua:u5ta;;*;=&=tl;;5;=&5&a5=t;;&;%tu=aa5=u&*=;=;;&u:5,;;;u;,;,5=*@=&;=y2=;@*&yl&t=N",
"rqq*qq*q%q9q*qq,r%q9q%qq*q;fqr,f><q*>qq*,,-r>*q9>*q,r2*99,*3*qq;rq22q;<;-9q*,q,q,;q9,2<*q>%q9>%q%9<@399%q9*q;f",
";;+&;@ =+y&==5%&;%&&*O+;%5+;;;+y%=;=:;%%&=+;%&=;&#%&%=+,;;O&+=&&;==u=&+&&,==t;+=+O=,=:@+&#O:&&O=+=+&&=&+;%+5%a",
"pf*7q<*pqf;2ff=iqf=-q7%iqf;pfp=pqfyfb2%qfk=pqf;afi%fq>*fqp=afq+<fa=fqp=pff;fqp=b7-;fqi=bf7=fqp=fqi=fqi;ff,;fqb",
"r9%*9x**99%>qq@>q>Xqq>X>q>X<r<@<q>X>qr%<q9@<q-Xqq<X-9r@-9<X<q<+rq>X-q<@<r7X>q<+>qqo>q>@qq>@<9*%x9*@99%%rq-%9<-",
"y=.%;==%=;=;==#a=&+;;*&5*&&&,,;y=;O#=,&&=;&;,=O+,=+;,y+&,=+y;&&*;#&===&;==+,=t+====&*t&=5,:y==+%==&5;+%;y&&;;=",
"x;;7f;7qq;ic,=7x;,9q;yb,=,c;ycca,c,=7c2;qq,;cq;=fpymfb=pf=;fx=q3q=fx,=pf=;pc=79r=ic,=7f;axba7x,,2ci;r97;ci;;ff",
",%;,>+*,,%%,@%%>5=,>%%-*%y-%*-;,y-%+%-%%,,%%-%&,2*%y>-O;2=+**+>;7%;;%&,*+@*;+,,,+*-%&y>+*,,%@>y=@>*+>>*+;;+%*i",
"Nfp%ay*2&7;p&ay:a=y>i;yb;y;aa<*laya5;,7,;,;by;i,y=i5ay&p,,&2=ya&Vfi5a;;;=,2,&k5yy;,,iyp;ii=;*,&2*pi=,*;=ab&i:V",
"f<<=q,@,@<<<*q<=q@,q9@-<%<*293*q-*3**q9**>%<-%9q>%q=<7*<9,%<%<q*<<72<****q9*;3-,-%q3>,,+>-+7<-+<@>>X><2+<<%<*p",
"N=,&l5$*+;=,y=;$=X*=y;=,=u=;;,:5y&;;===%&u=tya=u5#;+;;t&5y&5&=;5;;l5;&=;&;:ut5t:uuj=;&a=&,%;&5&;:+5%=#;+;y+lyN",
"x,q*qr%q9<@99%q%,9q%<q*q2,9q-<7,r;-qq->,;r22qf;qq*9*<99*2q,f*,9q*,r-<,*qq>-r<,f,rqf,9-rq%q9q*r,qq*q9q*q*qq*fqr",
"j&y+=,%=:=&%=&;.==tO&=&%5;y=%=5%yu;;y=&+=;j:72&=;#;+y5y+yy:&&;5;==,%;=&%,;==;=a+,,5&t&,+&=%=&5=*y:;=u%:O;,%%yt",
"Bqk;2bf;aqk=7xq%aqk=ibb=fif=<xb=fqa;kbp=aqk=fx,+ffk=aqa*qBb%fkk;fqf=bbi+7ff;apf=ffp;fpp%fq*=fpi;bb7;kqa*fq-=bf",
"*99%-qq%*9<@*9x%*q<@>qq@>q>@rq>X<q-Xqr<@<q-X>qq@<q<+<q-%r9-+<r9X>q<%qr<%rq>X>q>%3r<X>q>X<rq+<q-%rq>%99%*x3*%9r",
"==;&=2=#+;5&==%+&*y=;,=&5%=&==*O,=;+=*=&===&#**&=,t+=,%+;;&O=,+O;,5&=**&,=+O==y=,;*#**5&*==O*=y+==;=;*%&*=+.=y",
"cp;;pb;7<q;pb2,,f7kcfa;f2=2bi=q<2;bp;;fi*,cf=q<q=cf;*fi*frx;pf=;ib;,<7;yby=,f,kxx,;c,=7by;q<>;c,=2ci;797;f2;;x",
"i*++;-+;>,+*>@;y>@*,,%+>y&%>%+,,,+>*%+-2&%;-%7>;+-*+;2;O;,y%*2,**-%*,,%*-%+%-t,2<%%-y%*-%%,2=5>%%%,%%,,%%,y,%>",
"V:y&Na&;*>=ii%2&,*;=iq=iyi>,=yytk&5,>&,;;a:afV&ay=,%,,p&ya5i=y;i;yb=2=52,;tatajabka;y;ky;i;5;a;yy&p;,&2*ya&Nfb",
"q-<%<<@7<>X,>%<X-<q+>,@<;>3q%>,;9;-9q*;**3273<*q<%<%<3<*q<=q%,99%>3%<**9q**9*>7-9q2;,*3-%9q,%q=<q*<9,%<%<q*<3f",
"l5j+y;+;#=%5+:=&5&;%;&&u&,&jyu:t:tu;;%;&&=tl;=5;=&5&u5=5;=#=+5u=uy5=u&%=;&;;&t::;;=;y=,=;5=*X=#=;5,==X%+5l&,&l",
"rqf=rq*q*q9q*qq,r*q9q*qr-q,fqf,f,2r*,9q-2,;r,*q9>-f,r2*q9<*9*rq;xq22r;<;;9q-,r,i<;q9,7q*q,*q9>*q*9q%399*rq*q,x",
"y7%&;% ;#a=;:y*=,&=;*+@,&y%5,,+a=;;=tt*&=;%,&=;t=&&&*;+y55+=#;==,;;j;&+&=y;;u,+=++;y;5%%=%Oy==O;+=%&=;=%,*+y%j",
"pb=7q<%aqb;7bk=ppa=;q7%fpk;fff=kikubBq@pkb;aqk;kkp%a7>&kia=kfp+2ba=bqa=fak;aia=k<-;app=bb7=kqa=bfa=bqa;kb,,bqB",
"r9%-9x**q9%>rq%>q<+qr<X>q>X<r3%<q>X>qr%<r9%<q>+qr<X-qf@-q<X9q<@rq<X>q<%3r9X>q<@<rr@>q>%qr>%<q**x9*%99%%rq-%99-",
"7=.#=*&%*;&;=*+y=*X==%&5**+*;,&y==.+=,%**=%,,=.%,=O=;,+%,=+5;&%**+$*==&=*=+;=,O*==&**5#=,;=y*&+%=&&,;++;,&&;=&",
"b;=7f;7<7;pc5=,f;,<q;ib7=,f;yxxa,f;=yb7;<<,,bi;&fiymrb=if*;bb=q<7=ac,*pf=;pb;7<q=pb,*7f;afba7f;,7bi;q<2,bp;;pf",
">%;2>@*,2%%,%%%,,=2,%%>%%y-%%>,,y>%+%>%%2<%%>%*,2*%7>-O;2=+*-O>,7+-;%&2-+@*>+,,,+*>%&7>+*,2*%>y;%>*@,,;@>*@%-i",
"bi7%a5%,&,*7&y5;a=,-,;yk=y;ap>*jaya5=;>;;,;ky;,;,=y:y5&2;;%,*5a&Niy;y=;;&;;,&a;y,=;;yuy=77=-*;&,%iy=;*;=ak%y:V",
"r3<*q<%2%<9<*q<;q%<q9%>9*<-799-q--9**q9*-,%9-%99>%q=<q*99<%<%<q*<9729*;;*q9*;9;,>*q9>,<@<>@q<-+2%>,X><7@<<%9;f",
"N&,&l;+%X==,5==$=X*=5;=,=t=;;,;5t&;=&==%&t&5yu=u;+=+=;5&5t&5#=;5;;l5=&&=*;;y5;5:yta&;&u&&;+;&;&==+;+=#=+;y+j5N",
"c2r*qf*q9<%qq*q*,99*<q*q2<9q;<q,r;;q9;,,;r27qx;qr*q*<9q*2r,f*,9q*2z;<,;q9>;x22f,xrf,q-rq*q9q*f,qq*q9q*q*qr*fqx",
"a%y+=,+=;=&%=&;.==tO*=+%5;y;%*5%2u=;y=&+&;a5,,&=;+;+5,y+yy=&%=,;&=,@;=&*,;=;==a+,,;%5&,@%;*=%,&*y;;=y+;.;,&%7y",
"Bqb;,ka;aqb=yaq%kqk=ykb=aik=,fb=kik;kap=kqb=fb,+ffk=kik%qBb%ffk;kia;bki+7fa;kpa=ffa:kpp%aq*=fpi;kb7;bqa*fq*=bp",
"-99%>qr%*9<@*9x%-q<%<rr%>q>%rq>@<q>+qr<%<q-X<qq@3rq@<9-%r9>+3fq+>q<%qr<%fq<X>q>%3r<X<q>+<rq@<q-%rr>%99**x9**9f",
"==;%&,;++;,%&*%+**y=;,=#5**&==*O,=;+=*=&;=*+#**%=;5+;,%+;;*O=,%.=,,#;**%,=+.==y&,;*+**5#%;*X*;5+===&;*%**=+.=2",
"bp;;pb;2,q;pb2;;ftlbfa;f2=2bi;q<2;bp;=fi*,ba=7<q;bk;*fy&frf;pf&;pb,,<<;iby=,k,kxxt;k;=yby;q<>;b,=ybi;<<7;f,=;b",
"q-@@->+;<,+*,%;y>%*2<%@>2&%>*+,2>+>*%+-2&%>-+7,-+>*+;2;O>,7+*2,**>%%<2%%>%+%>5,2<%%>y%%>%%,2=,>%%%,%%2<%%,y,%>",
"N;,%kp&-*;=77%,&;%*=72=7uy*;=,t:a&,;=&;==y;yyN&a;*,%,;2#yy:y&,;,;yh=,=;;;=5atajapau;,;ay;,*,=a;55&7*;&,%5y=lya",
"p;9%<<%q9>+<>%<+>9q@><%<,,qq%,,>9;-9q*>--9279<*q<*<%<99*q9;q%,99%>9%<**qq**q->q;9q7;<*9>%9q,%q;<q*99<%<%<q*99r",
"l;a+5=O=%&+=+==&;&=+=&&u&;&a;,:::ty;;%&&&=tl;==;&+;&t:=;;=+=+;5=5,;&5%%=;%*=&;;;;;=*5=;==,=*X=#*;;,==X%+,l&;=l",
"xqf*fq*q*q9q*rq,r*79q*rx;q,frx,f,qx;,9q;2,>x,*q9>;f,f2*q3,;9=rq;cr22f;<>;9q;>f,i<>99<7q;r<*99>*q*qq%399=fq*r,x",
"y2%&,%.;+y=;:y*=,%;;-O%,%5%,,,+a*=;=,y*&==@,*&;,=%=&*;+7,,+=+;;=,-;a;&+&=7;=u,+=++;y=5%+=%Ot=&O;+=%#=;=+,*+y%a",
"pk*yq,%k7b=ykk=ppa=-22%apk;aff&kikabB7+pak=kik;kap%a<-%kik=kfp+,bp=bqk&pfk;kpa=k,*;kpa=kk7=b7a=bfa=bqa;ak,;bqB",
"x9*>qc**q9%>rr%>q<@qr9+>q>X9x3%<q>+<qr%<rq%<q>+qf3+>qf%>q<@9r<@rr7+>q<%3xq+>q<%9rr%<q>%rr<%<q**xq*%99*%rr>*99>",
"2=.+***%*,&=*=+5=*X=;%+,**+=>>&5=*.+*,%**;#,,=.%,=O=;,+%,;O,;=%**++*=;&=*=O;=,O*=*%**,+;,=&2*%+%*%%,;++;,*%;**",
"b;=2f;7<<;pby=,k=,,7;iby*,a;yfbk,a;=yby;<<,5bi;&aytmfb&ya*;bb=q,2=ka,*pp==pb;7,q=ib,*yf=kfbl,a;;ybp;q,2,bp;;pf",
">%,7,%*<7%*<%%*<,;2,%*>%%7>%%><,y>%@%,%%7<%%,**,<-%q,-O>7=@->X;<7+->%=2-+%->+,2<+*>%&2,+*<7*%<y;%,*+<2;@,*%%>q",
"ky,%u;%,&;*7&5;;a=,*,=ya=y=ui;%jata:=*;;;;=at=,;,&5:y5&,;;%;*;u&Nyy;y==;&*;;&a;t,=;*tu7=22=*%;=,%72&;*==ia%,=N",
"rqq*qq*9%999*qq,q*<9q%<q-3,qqq;q<,r-;9q-><*r<*q9,*r,q9*q9<*9*qq*rq7<q>>,*9q-;q,7<*q9<,q*q<%qq<%q*99@<qq%q9*q,f"
};
