/* XPM */
static char *afe4ea1863e34b1d8163e4381c4ac5ces0jzzRTNHHPZu89J[] = {
/* columns rows colors chars-per-pixel */
"128 128 42 1 ",
"  c #453625",
". c #483725",
"X c #4B3B27",
"o c #4D3D28",
"O c #523F29",
"+ c #55432B",
"@ c #5A462D",
"# c #5D492F",
"$ c #5E4B30",
"% c #604B2F",
"& c #624E33",
"* c #655035",
"= c #675237",
"- c #695337",
"; c #685437",
": c #665238",
"> c #675338",
", c #685338",
"< c #6A5439",
"1 c #6C5538",
"2 c #6C5639",
"3 c #6B573C",
"4 c #6C573C",
"5 c #6D583B",
"6 c #6E583A",
"7 c #6F593D",
"8 c #70593C",
"9 c #715A3D",
"0 c #725C3F",
"q c #745C3E",
"w c #725C40",
"e c #735D40",
"r c #765F42",
"t c #766042",
"y c #7C6343",
"u c #786144",
"i c #796244",
"p c #7B6446",
"a c #7C6446",
"s c #7E6748",
"d c #836844",
"f c #876D4C",
/* pixels */
"==,==<-=<222<-292&&<42<&==&<===-,-2,=<22--=<=<5====&&&=<;===&&&=&=<<777<<<4<===&$&=<-===<=&=--&#&2==&@====&&&&-<555<-2=<&=--<2<-",
"<<,=<,&=<<<22<<92&=79<<;=======<-<<==-<<;--<=<<====&&&&===&&&&===<<<274<<<7<==&=#&=<-=&&=&&===&+O&&&&&=-===-==222952=2<<=-<<<<--",
"<<<<5-&<2<<<<,<22==72=<--<,===<<=======<--=-=,-=====&&&&&=&$&=&=--=<<<,===<<&&&=&&=2=&$#&&&==&&#@&=--===--<<2;;52597&-<<<<<--;;<",
"<=-<,&=<2<<==-<<<-=<===&<<==&-22<<==&=-&=<<<===&===&&&=&&&=&=<,-=-;;2<<-=<7<&&&====<=&==&=&====&=&=====-;-=-<==52257-=<<<=&&===-",
"#$,-=&=--<,,-<<<<==&=&==-<=&=<<<<2====-=<572<=&===&##$&&&=,==<=<=;2<<<,<-277=&&===-<=&&===&,=-&&=&====-;;;==;<22<225;&<2<&&&=-=-",
"+@<--<22<=<2<2<<==<=,&=&=;&<<<,=<<-<-&;==<<5<,===#$$&$&====&&&=--;-<<-=<2775,&&===:7==&=-=&---&&=&=<;==-=;-==;<<<<<<==<7<&====;<",
"&=<;=&&25&-222<<;;<<2<=&<-=-==<,=---<-===-<5<<7<=#$&&&=-==&====<<<-=<-=<<272;=&====7:==&==&=-;%%&&&-;-=-;--&&=<<2222=<29<-====<2",
",752<$@=2522<2<2<=<25<=,<===&=,=====<-&===<<<<<-&&#&&====&&=&=,<225<<=<<<47<&&&&&&&<=&=&-<==<-&&&&&===;--==-=&==<2772222-<---<-=",
"=<22<;<-22<<<<<<=&<<2==<<&=&&&&=<<&=<<=,<,==<<<=&##&===,=&&&&=<;<-=<;-<<<<<-&-&=&$&<=&&=22<=-=;-&===&&---=-;;2-==<2<52<-=--=,,=&",
"&=-=2<;=<<<<<<===&<2<=<<<====&&=<2-===&--<<<<22&&&=====<=&&&&&---===;<<==-;=#&$&&&:7<==<52<===;-=-==&=&=--==2<<<2222<2<===<<==$=",
"<2=<9<--<<,<<======<&<2<-=&=2-&==<=&===<-,22<2<&==;-===2-==&&&=====-22<===<=$&&&&&:4<=$555<<-======&====<;&&;-<27792<<,====<=,==",
"22-252;=<22<<&&&&&=,&2;<=&&=-=&&=,=&==--,<22<2<,,==-,:=-<=&&=-=&===<2<<===---&&=&==<<=$=;2-=<====&=&===<-<<---;2977<<<-====<===<",
"<<<222<<=7952&&=&&<=<2<<<==-<==--=&&&==&=<7<=<<-<,<-=,&&=&&==<==&&=<<<<;--=-2==-<,=<<=$;;;<=<=&&&=-======;222;27977-=&====&<==&,",
"<<<<522<<27==&&::=<,-<<<<-==2-=-===&=&=-=<52<<2-=;--========<<2<&&&=<<<<;;====-<-<=<<=&<2--<2=&&&==<<<--<;;2<<57995<&=&======<=&",
"<,-22-=--==&&==:<=,<<<<<<<--22<,==<===-<<<2<;<2=&====&&==&==<<<<====<7<<=<====;222-7<=-2;;--<=&&==&==---<2<==-259952===-,==-<<=&",
"5<<<<=&==,$$&<&,<==<<7<-<,==<22<=&5;&=--22<<=<2=&&==&&==<===2<=<-=&&<272=<-=&&<2<<7e2;<27<<==&&&&&&=&-<<-=<<-<5<272<<==&====<&&=",
"7<=-<<$=tapt9r0q9==&:72-<,==:<<<,=-=&=<<<<<<<<<===<<===<<==&;<-<<=&&=<2<-2<=&=<222242<-;<2<==&==&&&==<<<<-;;=-2227,&-=====--=&&<",
"-=&=:7urr092=<72=&=-<272<<===<<<<<<--;<<<<,=<--=<<<=<,<<<=&&=<<<<===<<<<<,=&==-<2<292=--=-==,&$$&&&=,<<222<==-5227-,<==<-<;<<$#-",
"=&&==<772<<<=,2<=&=5=<5225<==5<<<2<-&-<-2<=&<<<=--7<<=<52=&==<<<<<=-<2<3<&&&===-<<2e2=<;=&===&$#$$&=<-;-==<--77259<92<-<==-27##=",
"-===&=<<<<24,,-,,&=<=<9522<&,72<<<2&&<222=&&<<-=<===,====&&=<<2-<<<=<7<==&&=-==-&<<95==<-====&&#$$&$=--===<<<572797<<<2,=&=--@&$",
"==<=&=722279<=<<=&&&&;9222<==77<,2<&&<<<4<,=-<<<<====&&$##&=,22=<,==,<=====-<<<<&==77<=-====,==&$$&======-222777795<-<5=&==&-$==",
"==2<,-297775<-<<<=====52<<2=$79<<=2<<,===47-=<75=&==,<<$#$&&=27<-<====&==&==<<<-=&<772<-=<=&===&&&&<=&&==<22<<7747<<27<$&&==$$&&",
"=<77<=79777<<=22<:2<=,472<<2247<;=<,<<,==<<<,<7<,&&,<,=$#&&<,<57<4<=====<===5<<===<72;25<==&=&==&=-<<<=&&=<2<79777=&-<======&$$&",
"=509<292<77<<<<72<7;<<77<<<<277<-==&<<=&=<,<<4922<&=,==$&&&<<=2225<=&<<<=<<==<<===-5<-<<==&&&=====;<<<=&&&=27779e9<===&&<<===$Xo",
"79e77992<<<27777222275<2-<<<,,7--=&=,<=<<<<<<<<<<-&&<<,=&&&:==77522==<2=&<4==<-<==<72<<<==&&&=-===<2<<====&=2779ee<&<=&&====-=&=",
"990727222<22<275222527<<<5<<<<9<<==$=<<22<<<<<<22==<<=<-&===&=55225<=<7===<,<-=<<=<72<<2<<=&==<,==<2=<<<==&=797e992-2<&&&&&$##$7",
"9092<2<<7422<,<2<22<<2<7<,<<<29;=&&$&<222<-,<=<2,===-<===,-===<7<<<<&:<===<<<===<,<97<2<<=,-=<2:=&&===-<<==<772097972=$#&&$++o#2",
"799<<2727<2<<=,5-<<<&=-<=&---27<&&&&&<<<<===&=-===&$==&==,<-=:<72<<<7<<=,<<<<===;-7992222-,-<25<=&&-<--75<<<&799775<<-$o#<+XX#-5",
"277<277<<<777==<<==<-====-=&&&2<$&&==<<2<=&&&&<---&&&&&======<<9<<<<2<=&=2<24<==&=272,<<772<<97<=&==<=<7<<<&&90992-=,=@ X&$++295",
"27727555<277<<<<<=&<<-&&=--&$&==$&====<<<:&&&&=77;<<==,<<=&&=5<2<<2<<==&=275<<==&&<7==277<2779<-=,&&<=,<,<<<209572<=&=&e:&=#&777",
"<2<<<;224272-<55===<==&&=<=$$&==&==<==-=::&$&&&=2<22<<-<<=&&&222<<2<<<<=<277,=-====4,<52<<<7597<<2==<&-<-<==29<-52<&&<99;=&$=222",
"-<;;--<2<795<<25<==;;<=&==&&&&&-&&==&====&&$$&&&==<52<<-=&===<<2<==<-2277299<,,,===<<<277722<r72<<<<<==<==$=252<77<=<e0<&&@&,<<;",
"-2<--,<2279<<<22;=&=;;;<<=#&===2=&&&&&==&&&&==&<<<--<-=&===,===-=====<222252<<<<--,<<<25222<<07<<<<-<,===$$<<299977ru72-==&&=-<<",
"<<2<<<--599-<222;====<--<=#===-2,&&&&==:=,:=--,77772<<<=====--=&==-&&=2<<22<,,,-&,2=<<<2<<<<59<<<<<<<====-<227ee729s9<=&&=$$=<27",
"<<2<<<<<52<<<2<2<====-===&&=---74&&&&==<e7,<-=<7<795<<<&&&=<<-=&==<&#,72<<92====&=<,,,<<<2<222<<<22<=&===<7492<22270<-===$+&2<57",
"7272222<==,--<2<-====-=,&===<,=22======2t7,97,<<752<<<=&&&=--==&&==&&<<72<7<-=&&&&;<<<<<<7<4<=<<<2<<=&===<279-&=-2295-=&=&$=<2<7",
"7<<<<--=:<==,<2---&=====$=:<2<=<<=<<<=&&::<9742<92<<<<-=====<<<=&&&&=<<7744<==&&==<5275727<2<<<2<<=<,,=<57972&&&-2<92<<&@@&&-<<7",
"72<<<<==<==$-22====<=,-==4<<<<<-7==<<,-=&&<777797<7<,,======-;;=&$&&=<77227<-====&=5577577222775<<2<<<=<2999<&&&=-<2-=r2o+&=-=-2",
"72<<<<<=,:==-<<&=;===-=<27<=-<==7;==<<==&&=<<,<e2<2&&<===&=<=--=&&,<,272<27<<<<<<;<<<22<952227722;<<<77722902=&&;-;<=&=2@O=2<277",
"<<,<2,,<<:==-<==-;==---=----;<==<<==<<<<=<<=,==5777<<====---===&&&=<<<27247524<252<<,<<&-<2559722==<<7r97=92=--&<2=<,--&O+-&=997",
"<<<====<<=<=-<<===;--=--=,<-=;=-<<=<<<<<,==<,&=59997<==&==--&======<<<222272;<2227<7<<<-<<279572<==2<2qr9<9<==-&<9<<2=$$+#-$=797",
"<<$ +$&===-<=<<===<,=,<<<<72===-<<=22<<2<=&=<&&299997<<===-=&=<<<===,<<2<<<<=&=-<722575<;&=77772-<&,;20r97<=;-=<7<;25<=###=&=279",
"<=$+$$&,<<,<<;<<<=<<<2<<-=75-===<7<27722<::==&&4799905=====-==qe<<<=,<<<222<,&&===;<2222<-&<;=2<22<;-29029<<2<222<;-22=+#@&=2790",
"<=&5<==<77<<<-=,-,-<<2;===2<,<<<57<-<277<<<=$$<970ree7=&=&=;==72:79<<,<<2772<=-==&-22<52<22;#=2-25<=<29999995<-<<<--<2=#+@=&5977",
"57<7<<<7774<<===,=---2==--<<<25<<7<<<2742<<=$=<720r909-==;<==&==<7777<7577972<<===<7755==<-=;52<55<;<<7799<7;;<-<<--=2&+@=225577",
"507<72<75<<<<<,=<<<&=5=-<2;<2222<774<<7<<4<<==&2209er92-&;2==&=&=<224e92577<<<;;&-<799<&-<<7522<<2<<22<7992<<<<==<<<=<;&&$<55772",
"&25272<<;=<,<75--<<=-7-<<-==<5<-,<7<,-<7<4<77<<<79rrre2--<<<<-=:=;<<=97272222<-;2<2909&=;227222<<72<592992<<<<<==<<2<222=+-25972",
"+@<57<<<2<,=<25<=-<<25<<<<=====;<<772<2<<<<5225;,<0re7<,<<<<<<=<<<<<=27722552<&;522795-<2;22--5<&2<<27eer<=<522--;;2252<&$-2522<",
"$o$<57777<,=<<--=<<<<<<<<5=&&&=<2272<272<<<-;25-&-909722<,<<<<2<==<<=<77<<57,&=2<222-==52-;7<<75-,<2<<79e==<4<<<522<<<=&$==22<<<",
"=&=709722<<-====&=-<<-==-5;====-<<2<<72<==<<&<<<-=<97722-=<7<274,::=&,<<,<77<<22222555-27;;7252=<&-72--29<=<2=52772<=<&X+==;25<<",
"<<=5095227<=&--&&&=;<-==<2--===-=-;<<<2<-=<<<222;==272===&=7777<<:=&&<<<<<72222<222557;55557<22--=<;=<5<52=<<<557977<-+o==;252<<",
"22,<r9552<=&&&--==-;;==---=;<;;-===;<==<<<-<2222-&&74,=$$&&<772<<-=&=4<-<<<2<<<252<2<7<2<<75&;<2-<<<<<<=;7<<<=<599779=&$77755<=<",
"7<-<0922<=====;<--==;=&=-==-===;;;-<<<2299<<255,&&&--<-$&<<<277-====&<<-,<<<22<2222<<22<==<5-222<-<<<=<<<<-<=&=577555=dq<272<-,<",
"2-=5902<2=&&=-<--;---=&&--==&==-<<-=2777997779772-=&==&&=222<<7-==&=&=<<<<<<22<2==<<5<<<==<2<92=<22<<<<<2==;=&&<2755==qy;==5<-<2",
"<<=999972=&===-====--&&&-2-=;;--;-=&=<772<<259922<-&&&&=-=,774<===&&==<2227272<2-<<2<<=<==<955<=<72<<<<<5<=-=-=-255-;2--2295<<<7",
"7<<75207<&#&--==&&==-==--<--;#+===&&&-<22<<2;;2;-;-=&-;;;--2272-=&==&<2<27277<-<5927<<<<<,<72<<-2722==<<55--=-<2255<<<$2990<=<<2",
"2<<;<297=&&---&=&&=-<-&=---<=$@=<====;=-<;-=&&&&=;-=&&===;<<7722<--==<7257<57<<<27797<2<<<<<<2;;<722-=<<2-==&==<2<;25=&9099<=<<<",
"=&==&<95=&=<<-==&==;<-&&&&=2==-;2-===--;-=&&&$&&==-=&==-=;;27722<<=&<2777<&-2<22<27972<<<;=&=<;<;52-;&-<<;=====<2==22=<5977<<-<<",
"&&&&&<79<==;-;==&<<--==&&&=7;;2;===--;=;=&&&&&=&&=;<-;2;==-<22<2<-<<<<705&=-2<<77797<;2<<;===<<--2<<<;;==<-<=;<97<=2-<7272,-<-<-",
"&%&==<29<==--=&====-==&&$&-9<<<<=====-;2-&&%@&===-<;;2<-=&=<2522<&2227002=<<<<<29ere==<52;;=&-;-;<<-=====&=2-;209<=<<<55752<<<=&",
"&&&==<25-&=;-#o&;==<=&&&&=55<<<5-&&&&=<<;=&&&&====---<;2-=-<255<&=2<;22;-;5<-;2;25e7==<2;<<==-==<--25=&===--=-<772<<==25977<<<&&",
"&=&=-=;==&=<-=&=2;--=&&==52-;-;22&===-<<;-===&=-=&=====-;=-<<72&=<<=-<2<--<-;--;-<22-==&=-===;<=-=-22-===-<&=-=<<-<<&&<5752<<<=&",
"&=&&===&$#&2<=;;<---=&&&-92-=&;2<====-=-;=&&&&&-=&&=&&&=2=<<-==&<-&==$$<;;--2<==-;-===&&&==-5<-==&;--;2===;---=-=&===&<2<==<<<<=",
"&&&&&=&&&&=9<<2-=&=======;--=-;-=-;-;-&=-=&&&$&==&&&#$#&=====&&=;-&==##=-;;992-=----<;=&==&<72;;=@&-22;=&&;-=---=$&-22<<<<,,--,=",
"&&&&&&&&$&<9<<<<-&=&&=<<-==&&=-=&=-=-;;--==$$&=-=&&&&#@$&&&&&&&=-=&-;&====-72---;--=-----=&&<<<2<===--=----==-=;;=&-555777<=&&&&",
"&&#&$##$&=;<<<<22&=&==-=&&=&&&-=&&&==-;2;=======-===&####&&=&&&&&&=<&====--=&&&-;-;-22-<2<&=5-272-;<<-=-2-==;;-;;=&=799772<-&&&&",
"&$+#$##$&&&====25=====&&&&=&&&=<==-<--<;=-=====-;-==&####&=&&&&&$&&&=<<=---=&&&==--27-&<;=;52;<2<<<<2<;<-=&-;;;-&&&&707522<<&=&=",
"&$###$$&&=&=-=&<<-==&=#$&&&&==-<;<2<=====-=====;2-=$#&$&&&&&&&&&&&&&==&==&=-&&&=&-;22&=;<592<=&<2<25<27<&==;;;=$&$$$509522<-&##&",
"-&&&$&&&&==;;;=====&&&$$&&&&=--;-<<<-===;;-==&=<2;&@@#&&&&==&&&&&====-=-=&&=&&&=&=-==&;<<52;=&&22<<97997==-;;-=&&&&&50552<=&==&&",
"&==$&&&&=====;&&&&==&&&&$&&&=----;<5<==-;;;=&=9rq5&@##$==--==&&&&=;;;;=2-=&&&&&-&&&&&=;==;=&$&&-2<220er7==----==&&&=209<<;-=-==&",
"@&&&&&&&====-;===&&&=&&=&$$&=<;-<-;22-=<<;;-&5q995=&&##&-;2;=&&&&&=;-=&2--&======&&&$#$=;&$#$=<=-<2<9er2=-;-=---=$&=252<2;&=;=-&",
"&&&&&&$&&======&=&==&&&&&&&=;<;--;<2<--<<;==&2222522&%&&;;;;&#&&&&&===-;=-&--=&&&&=&$#&=<=$##&-&=<922e9<=-;==-=;;&&--=&&;;====--",
"&&&$+$&&&&&===&&===;==&&=&&-;;2;-=-===-<-&&=&&--29552;=&=-;-=&&=&&===-<-=;=2--=====&&#&&&&$$$&<-==<<<2,=&&=-;;-;<-=&&$$&&--<<==&",
"<$+@&#&&&&&==&&&===2=&&====-;-=====&&---&&&&&&&-0922;;&&&=-=====-;2;=<22;-;2;;=-=--=##$%&&&&&&-<-==-=&==&=-;;;<<-;-&#$&&+$-22=&&",
"=@&&&#$&&&&=&&&====;====&=&====&&===&&&&&=&=&&&;92;;-$#$#&-=-=;2;<--&;222=<2;===&&&&&&&&&&=&=&-===&=&&=-=;52-;;;-;<=&&&&@#&===-;",
"=#&@&&$=&&&&&&=;;==--===&==&=&==&&&=&&&&&&&=&=;99<==&#$$#&&==&=2=-==&;---=<<-=&=&&&&==&&&&====-;====&&=--<25<<2;-=-2=&&&&=&&=<;&",
"&@&&=&+&&&&&=&&==&&=-====-;==&==&&=<=-=&&&=299902=&&##$##&$&&$=;=&=&+=-;--==&&&&=-==-==&&&&=;=-<=;=-&=-,<--2225=&=-<=&====<,=2-&",
"##=-$##=-=&=-=&&&&===&&-==<-==;====<<<2<29qqqq99-%@###&##&$&&&;;=&==&===&&&&&&&==-;;;;;=&&&&-;;==2-;&--<2-;52-<=@&-=&&=-=-;<-2-&",
"&&&&$$=&&&==&&&&=&--&%%-======;=&&==<9qr0999955;=&####$$&&&&&=--===;-=&=&&&&-=&---;;255=&&&&&====;=-&;<;-;590-&$&--&&&&=====-52;",
"$@#@+$-===&&&&&&==-==%%=;-&o$<;=&==-<5975<--=&&&&&#@@@#&====&&-2;;=-=&&&=--==&=--22-;-=&&=&&===-<==;=;---22505==22<;======&&-522",
"&@&&@@&==&&=&&=&=-==&&$&<<&&&<;===--52<==&&$&&&#&&&#@#$&=&&&&&=---;==&=-=-;=&&&--;5;;======-<-=<2;--;2;;-;-22<2222<<;=;=====<222",
"9=#&##$&&$=-=&=&&===&$#&<<=-<<;===-=2;=&&&&&&&=&&&&$##$&&&&&&&===<-&&==---;&&===-29;-===;;;2;-=<22<=<2;===-22--;;<;<2;-;--=&;<79",
"95=&#@$$#@&==&&&&&=&&&&&52-2<====-<-<;=&&#$==&-====&&#$$&#&&#$&&=<<=&&&-;2<&===;222---=&;2--===<;;-=2<-=&&=;2<<2<&=<2;=;==&&<;<7",
"995-#+#&@+#&&&&&=&&&&$&=92<<<-&=&&=;;;=&&##&===&===&$$$###&&#@&&&=-&&&&;22<&&&=<2;<=--=#-;&==&$--2--=-;=&&=;<22=<&==<=&=-;=&=-<2",
"222=@+&<=@&&&&&&&&&&=&=522;<22&=&&=-<;-===&&-=&&&==&&$##$&&&$$===&&%&&=----==-=----=-=&&;;&&=#+&-;;---2-=====;<&<==--&=-<=&&=<<2",
";---&#&<2&===&$$$#$$&=27--==29=====-;<-===&&-=&====&-=&$&&&&&#&===&&&&&==--<-==---;===&=2-=&=&=-=-=&-2;-<;-<--2<<=---==-;;==--<<",
";;;=&-&=;&@#-=&&$$$$&=25<-&=22--=====--=&&&$==&&&===&#$&==&&&#===&&&&=&=&&&--=-=&;2-==$&=;====&&;---;;==-;2-<<29975==-=&2<--;22-",
"=-=&=52=-&&@=;=&&$#&-&;;;<--2<2<;;;-=-==&#&$==&&&&&&&##==&&$&&===&#&&===&&===&==&-2-==&===&====&---<-==&=;2<<;<70972=-=&2<<2259-",
"--===292-;=@=;&&&&#=====-<;;;<2;==---;=&&&&&=&&&&&&&&&&=&$$&&&&=&&&&&&&======&==&=<-&&&-=&&=-=-;-<2-=&=====;22<27;<2-;;;-;25992=",
"=-;--29255=#&-=&&==<&&&=-<<<--<==&&&===&==&==&#$&&=&&&&==$$&&===&&=&#&&&&&&&-==&-=2<&@=-&&&=-=-2222=&-=-;==-=2<;5=<2;2--=-;9952=",
"-&@=<<52q92$&-==&=<-&&=--<;-=&=&&&&&=-;=&=-;-&$&==&&&&&=&$&&&&===&&##&&===&&-==;-=5e2&==&=&==&=2-22===&=-=&=--;-2;<222-<=&=-2<-=",
"&&=;<;<2r92&#-;;--=&&&=;---=&&&&==&==<;=&==;;==--&#&&&&=&&&&#&&=&&&&&&$&&&&&=&&--=29=--=;<=&==;2<;2=&&===&==252=<;222522-&===--=",
"&&=;<-55995-$=;<;=&&&&-;----&&&====<---=====;-===&#&&=&&&=&##&&&&&=-=&#&&&&&===2-=2e=<==;-===&25;-;&&&&=&&&=;2<=-25<5752====&=-=",
"&&&=<<<29992=-52;=&=&=;2-==<-=<<===<=-==-==-2-===&#&=====&&##&-=&=-;-=&=-&&&==-5;-2777-=======59;=;--=--=&#&<5;<<252220q;===&=;-",
"#--=<<==-99;+&2;-==-==22<2-<;<<<-====-=====-2;--=&&&&====&&&&-<=&==-;-=-=&&&=--2<;22=2;--=<==2;;;=-===-===&-22225002<<222-&==-;=",
"&2;======29=@=22;===-;<2---<-=-2;==-;;-====-<--=&&&&&&&&&&&=-<;====-<-===&==<<---<2<=2;===-=&=&--=;-===&=-&;5<297992<-<5--;=&#&&",
"=;==&&=;;<9-@@;<<-==---2-----=<52-=-<<<--===;==&&&&&&&&&&&&==-=====-2--=&=--<<-2-;<=42<-=-==;--2;-<<--==-<-;52255792<-<<;;<<;-=&",
"&=&&-==---2<@O&5<-=&==2<-;<-<-;22;=<<<<<-==&==&&&&&$&&=&&&&=---====-2--===,-<2-;<<<29<--=-=&-;252;<<22-&&<2-<<<;2709<-==;=&=;-=&",
"&=&@;;-<<<2<&@&52==&=-22<<2;-;;22;-<<<2<-<=====&&&#$&&&$&&=--;;=-==-;=-;2<==<2;;22<27--<<<<-;2-292<-<2;&=-<-<<--<709<<<<<=====&&",
"&=&#2<22<<22<=-<<-==-<-;;<<;-==;7<<2<22-2;=-;==&&$&&&$$#&&==--2;-==&-&=277<<272272<52=-2<=<<-<&&5;-=-<-;2-==<2<-<797==09<=&===;=",
"==&#=$22&2<;2--<--==-===;=====-<2<-<<<--5;==-&&&&#&&#$#@&&&&=-<2;-=======-<<25-27,<<<=,2292-=-&<2-;<=@&2---<<<<=,759<-595;&&&===",
"&=&@#$<&&22<2--2;-<--=&&==&=&=-2<;-22<<22;===%&&&&$$$#@@&&&&-<25<;=--===&&=<=<<2<2522-<59r9<;&&<2-=<==22-222<2<<=<292=<-<<=&&===",
"=;@.X+&-==-22;<<2--=;;=&==&=&=<2-&=<52<;<-===&@#&$&&$#@@#&#&-;75<<=-;=&&&#&<<<22<=-272<55255<&&-;==&#2;<2222227<=<592==&=2;===&=",
"<=&XX#-;;<&<<=222-=-;;;==&&===;;-=&=22---==--&&&&$&&&$####&&=<2<27<--====&,<,<<<<&=902<<<<<<<=$=-==--2-;;-222;-&#<-=2=====22&&==",
"<==#$&-<;2--$$&=<;-===--;=======-==&<<======;===&&&&&&#@#&&&=2;<<27<<;-<2<=&,<<<<=-9e72<2=-<<-===&---&----2;;-&&=;222<=,<=-=&&==",
"===#@--<;;;<&@$=<<-;-=<<2======--==&;2<===&=<==&&$&&$&@+@#$#&-;<&<<<<<;-<2&&2<==-==2725292<=<-<2=&&==&&===;;--=&=;252===<&&&&===",
"&&<&#&$=<<<-=&-;<<<;<=,-<<-;<==,=<-&-7<=====<==&$##$###$@##&=-<22-<<<<<<<2<-2<-=-=;55<<<72<-<=&<=&&==-==&&-=-=-&&=&92&&<2,&#&===",
"==-&#$@=<7y2=&<52<<<<,,=<-=--===<<<=&<<=====-==&&$#####&###&-;<5<-<<<22<<2<=<<<<-==77,=-25-==&&&===-&=;=&&&&-=;$&=-52=$=972===&=",
"===&#$#=-9f2#=522222<<===========-22=&==&===;==&&&####@&&##&==-22;<2<7<<<74<=<-=&,-<9<=-22=-=&&=<;;-&--=&&&==&&$-;2-<2$=r9<===&=",
"&=&#@+@=-22&@&52&=<2<==;==========<2=&=&&=&&=&=&&&##&######&&=-2<--272<44422<--==<2792<-<5-====-==-;==<;=====&@&;-;-25=&902===&&",
"===&&$$-<<<=&=25&=<<<====<==&&====-<<<;=&&&&=&&=&&&&&&&###@#&=<2<&-<<<<2<<<2<=<<=<7992=;<7<=&&=&&=&==-2;;;-&&#&=<22<292&2999=&&&",
"====&&#=<<=&<222<<<<<-==<2=&&&&=&=-<<<<=&=--=$&&=&==&&&@@##&&=22<<<===,=---<=-<<&27795---7<=&=<=&=====2;=&=&=&---2<259<&=<29-$&=",
"&&=&@@#&-=&=<-22<-<2<,==-,=&&====,-=22<==-==-&&&&&&&$#$@@&&==--<<<=--===-=-<==-<=<<7072--2-==<,&-=-;=-<<==-=&<2--;29r9=<=&-5--=&",
"&&&$++@&<<--$=<<-,<2<====-<=&&==&,<<<<<<5&$&<<&&$&&&#$#&&===-==-<===<--;,--2-==<,<,792==<7<==<&&<=<;-=&=-;<<-22=&<29r9,<===,<2-&",
"=&&$@++&====#=<<=<<7<==,,<2=&&=&=<<5<=-22;-=;2=&$$=$#$&--==&,==---==<<<<<;-22==&:<<77=&-<7<2<<=&<-&&-=&$&;<2=<=&&=50e79e=&,&,2<=",
"&&&##@+#$&&=&&<<::<<<==-=<<==&<=&=<<-==<==<<-5;=$&=&$&=<<-;-,=,=;<==7777-=-<7-===<<72==-;&&<<=&=;;&===-&&&=&=;&#---99247<=,<=<&$",
"$+@+@&-++&&==&<<,<<=====--====2;-;==-&&;==--=2;==&&&&&=,<======<<<==24992;=<2=&==-<22-=-<<&&;==-2<&&==;<--=#<-=&<;;50-=<<<-<;;&#",
";-&@#=<79q--2=<<=-<===&&&&&$$&<---;==@&;==-=&-====&&&&&=========-=<2,<7722<<<====-<4<-=--;;#=-&<5-$&=&-;==&#--;-;-2705-&&--;<=&&",
"<<=&&===79<<<=&===,-===&$&$#$&-==<=&=&&&==;=&;====&&&&&=====&=&=-==5=$&<=:<=:=&===:7==,====#=-==5&@&=-==&&##&&=--<<992-&&=<<--&&",
";-&&&==&&=<,,<==<--=====&&$@$===<<=&=&=-====&;-===&&&$&&&&&&&=====&=$##=&&&&====&&=<=<2==-<====&=$##==&&=--==&&;<<277<2==<2<-<==",
"=&&====&$=,<==<<<====-<=&&&$&,==<<-&&&-<==$==<;====&&$$&#$$&-2<-=&&&&&&&=<59&&==&==7,==&&<2<-=&&$&&&=&=======&&=<259927<<<===-=&",
"=&&=-=&&$&:&$&&$@&&==-==&&=&&&&&=<,==&=&&=<-=-<=&&&&&$&&&&&=<<&&=<2<<-&&=<79======<5==$&-<<&&=<=#&=&&=&=#%-==$&=<<-2<<25,<&==;<=",
"=&&-<,&=+&<$$&&&,<=&&&&&$&:=&&&===-=&=--==<;=<2==&#&&&==&&=<<5=,-;<7<<===<77====&&<5=&&-2<7=<-;<<&=====-&&======<9<,&==97<=<-2;<",
"--<=-&+&$<<&&$&<72<,=$==$&:=&$$&-<<====<--;;;22-,&$&=&==&&,22=<2<-<2<4<-277<=======<=&=<2<&22;;<2=&=-;<-&&====--2922=-=79<--===<",
"=-2-=&&&-7<,,&$=72<==&=,&&$&&&#&-=<====--<;-<27-&&&&==========<;-<<<27<<7774==&&===<&=-<--<<--<<<<-;<-=&#&=-==-;<277<25292<&&==<",
"==<<=&$+=<==<,&=2<===&=<=&&&&&$&-===;2<;-==--27-=&&=&========--=-<=,47<77777=&&==&=<==-<-==-=-,=,<2<<-=##&===-;;;222==5772-&-2<-",
"----&=&&,2,=<==22====-&=&$=-=&&=-===;5;;==-;=22-===&&&===&&=&===--<<2<<<27e7=&&=&$&4,=;;=&--=,-<2<5<;=&$#%#&==;2<<<<-=<799<=;55<",
"=<-=&;&&27<<<==57==,=<=&&&=-&======<;<<2-<<--22-=&&&=&=<-=&&=&&=--<<<<<227e<&&&&&$&<--=&&=<==-=;2272;&&&=&&=&&-;<;<<<--2<<-=<595"
};
